<svg width="42" height="42" viewBox="0 0 42 42" fill="none" xmlns="http://www.w3.org/2000/svg">
<g clip-path="url(#clip0_2334_38703)">
<path d="M42 21C42 9.40202 32.598 0 21 0C9.40202 0 0 9.40202 0 21C0 32.598 9.40202 42 21 42C32.598 42 42 32.598 42 21Z" fill="#ED812B"/>
<path d="M26.6605 25.8892C27.5465 25.2987 28.0879 24.8556 28.334 24.5112C28.6293 24.1174 28.6293 23.5761 28.3831 22.9853C28.137 22.5916 27.7926 22.2963 27.3989 22.1978C26.8081 22.0993 26.2668 22.2472 25.6762 22.6901L25.0855 23.0838C24.5933 23.3791 24.0519 23.5761 23.5105 23.7728C22.6739 24.0189 21.837 24.1174 21.0004 24.1174C20.1144 24.1174 19.2777 24.0189 18.4902 23.7728C17.8996 23.5761 17.4074 23.3791 16.9152 23.0838L16.3246 22.6901C15.734 22.2472 15.1434 22.0993 14.6512 22.1978C14.159 22.2963 13.8637 22.5916 13.6668 22.9853C13.3715 23.5761 13.3715 24.1174 13.6668 24.5112C13.8637 24.8556 14.4543 25.2987 15.3402 25.8892C16.3738 26.5782 17.8504 27.0213 19.8191 27.2181L15.0449 31.9924C14.5527 32.4353 14.4543 32.9276 14.6512 33.4689C14.848 34.0103 15.1926 34.3549 15.7832 34.5517C16.3246 34.7487 16.8168 34.6502 17.2598 34.2073L21.0004 30.4666L24.7903 34.2564C25.184 34.6993 25.6762 34.7978 26.2176 34.6011C26.759 34.4041 27.1528 34.0103 27.3495 33.4689C27.5465 32.9276 27.3989 32.4353 27.0051 31.9924L22.2308 27.2181C24.1012 27.0213 25.5778 26.5782 26.6605 25.8892ZM14.6019 15.8486C14.6019 17.0299 14.848 18.0635 15.4387 19.0478C16.0293 20.0322 16.8168 20.7705 17.8012 21.3612C18.7855 21.9517 19.8191 22.1978 21.0004 22.1978C22.1325 22.1978 23.2153 21.9517 24.1995 21.3612C25.184 20.7705 25.9224 20.0322 26.5129 19.0478C27.1034 18.0635 27.3989 17.0299 27.3989 15.8486C27.3989 14.6674 27.1034 13.6338 26.5129 12.6494C25.9224 11.665 25.184 10.9267 24.1995 10.3361C23.2153 9.7455 22.1325 9.4502 21.0004 9.4502C19.8191 9.4502 18.7855 9.7455 17.8012 10.3361C16.8168 10.9267 16.0293 11.665 15.4387 12.6494C14.848 13.6338 14.6019 14.6674 14.6019 15.8486ZM17.8504 15.8486C17.8504 14.9627 18.1457 14.2244 18.7855 13.6338C19.3762 13.0432 20.1144 12.6986 21.0004 12.6986C21.837 12.6986 22.5754 13.0432 23.2153 13.6338C23.8058 14.2244 24.1504 14.9627 24.1504 15.8486C24.1504 16.7346 23.8058 17.4728 23.2153 18.0635C22.5754 18.6541 21.837 18.9494 21.0004 18.9494C20.1144 18.9494 19.3762 18.6541 18.7855 18.0635C18.1457 17.4728 17.8504 16.7346 17.8504 15.8486Z" fill="white"/>
</g>
<defs>
<clipPath id="clip0_2334_38703">
<rect width="42" height="42" fill="white"/>
</clipPath>
</defs>
</svg>
