<svg width="24" height="24" viewBox="0 0 24 24" fill="none" xmlns="http://www.w3.org/2000/svg">
<path d="M9.74902 11C9.74902 9.75736 10.7564 8.75 11.999 8.75C13.2417 8.75 14.249 9.75736 14.249 11C14.249 12.2426 13.2417 13.25 11.999 13.25C10.7564 13.25 9.74902 12.2426 9.74902 11Z" fill="#4EBDF5"/>
<path fill-rule="evenodd" clip-rule="evenodd" d="M6.35076 4.59572C7.92227 3.30899 9.85807 2.25 11.999 2.25C14.14 2.25 16.0758 3.30899 17.6473 4.59572C19.2274 5.88946 20.5194 7.47865 21.3876 8.68801L21.4592 8.78759C21.9819 9.51384 22.4121 10.1117 22.4121 11C22.4121 11.8883 21.9819 12.4862 21.4592 13.2124L21.3876 13.312C20.5194 14.5214 19.2274 16.1105 17.6473 17.4043C16.0758 18.691 14.14 19.75 11.999 19.75C9.85807 19.75 7.92227 18.691 6.35076 17.4043C4.77066 16.1105 3.47864 14.5214 2.61044 13.312L2.53884 13.2124C2.01617 12.4862 1.58594 11.8883 1.58594 11C1.58594 10.1117 2.01618 9.51384 2.53884 8.78759L2.61044 8.68801C3.47864 7.47865 4.77066 5.88946 6.35076 4.59572ZM11.999 7.25C9.92796 7.25 8.24902 8.92893 8.24902 11C8.24902 13.0711 9.92796 14.75 11.999 14.75C14.0701 14.75 15.749 13.0711 15.749 11C15.749 8.92893 14.0701 7.25 11.999 7.25Z" fill="#4EBDF5"/>
</svg>
