<svg width="33" height="32" viewBox="0 0 33 32" fill="none" xmlns="http://www.w3.org/2000/svg">
<path d="M18.7179 18.3143C16.9107 20.26 16.7793 22.6857 16.6232 28C21.3711 28 24.6486 27.9829 26.3407 26.2686C27.9836 24.5029 28 20.92 28 16.1286C22.9071 16.3 20.5825 16.4286 18.7179 18.3143ZM5 16.1286C5 20.92 5.01643 24.5029 6.65929 26.2686C8.35143 27.9829 11.6289 28 16.3768 28C16.2125 22.6857 16.0893 20.26 14.2821 18.3143C12.4175 16.4286 10.0929 16.2914 5 16.1286ZM16.3768 4C11.6371 4 8.35143 4.01714 6.65929 5.73143C5.01643 7.49714 5 11.08 5 15.8714C10.0929 15.7 12.4175 15.5714 14.2821 13.6857C16.0893 11.74 16.2207 9.31429 16.3768 4ZM18.7179 13.6857C16.9107 11.74 16.7793 9.31429 16.6232 4C21.3711 4 24.6486 4.01714 26.3407 5.73143C27.9836 7.49714 28 11.08 28 15.8714C22.9071 15.7 20.5825 15.5714 18.7179 13.6857Z" fill="white"/>
<path d="M28 16.1286V15.8714C22.9071 15.7 20.5825 15.5714 18.7179 13.6857C16.9107 11.74 16.7793 9.31429 16.6232 4H16.3768C16.2125 9.31429 16.0893 11.74 14.2821 13.6857C12.4175 15.5714 10.0929 15.7086 5 15.8714V16.1286C10.0929 16.3 12.4175 16.4286 14.2821 18.3143C16.0893 20.26 16.2207 22.6857 16.3768 28H16.6232C16.7875 22.6857 16.9107 20.26 18.7179 18.3143C20.5825 16.4286 22.9071 16.2914 28 16.1286Z" fill="black"/>
</svg>
