<svg width="32" height="32" viewBox="0 0 32 32" fill="none" xmlns="http://www.w3.org/2000/svg">
<g clip-path="url(#clip0_4001_7149)">
<path d="M0.682873 15.9321C0.682123 18.6418 1.39012 21.2875 2.73637 23.6195L0.554123 31.5873L8.70812 29.4493C10.9634 30.677 13.4903 31.3203 16.0581 31.3205H16.0649C24.5417 31.3205 31.4421 24.4226 31.4457 15.9443C31.4474 11.8359 29.8489 7.97264 26.9446 5.06614C24.0409 2.15989 20.179 0.558516 16.0642 0.556641C7.58637 0.556641 0.686498 7.45414 0.682998 15.9321" fill="url(#paint0_linear_4001_7149)"/>
<path d="M0.13375 15.927C0.132875 18.7341 0.86625 21.4745 2.2605 23.89L0 32.1434L8.44637 29.9287C10.7736 31.1976 13.3939 31.8666 16.0601 31.8676H16.067C24.848 31.8676 31.9963 24.7216 32 15.9397C32.0015 11.6838 30.3455 7.68162 27.3375 4.671C24.3291 1.66075 20.3291 0.00175 16.067 0C7.2845 0 0.13725 7.145 0.13375 15.927ZM5.16388 23.474L4.8485 22.9734C3.52275 20.8654 2.823 18.4294 2.824 15.928C2.82675 8.62863 8.76725 2.69 16.072 2.69C19.6095 2.6915 22.934 4.0705 25.4345 6.5725C27.9349 9.07475 29.3108 12.401 29.3099 15.9388C29.3066 23.2381 23.366 29.1775 16.067 29.1775H16.0618C13.6851 29.1763 11.3542 28.538 9.3215 27.3319L8.83775 27.045L3.8255 28.3591L5.16388 23.474Z" fill="url(#paint1_linear_4001_7149)"/>
<path d="M12.0848 9.26843C11.7865 8.60555 11.4726 8.59218 11.189 8.58055C10.9568 8.57055 10.6913 8.5713 10.426 8.5713C10.1605 8.5713 9.72913 8.67118 9.3645 9.0693C8.9995 9.4678 7.971 10.4308 7.971 12.3894C7.971 14.3481 9.39763 16.2411 9.5965 16.5069C9.79563 16.7723 12.3506 20.9203 16.3971 22.5161C19.7601 23.8422 20.4445 23.5784 21.1744 23.5119C21.9044 23.4457 23.5299 22.5492 23.8615 21.6196C24.1934 20.6901 24.1934 19.8933 24.0939 19.7268C23.9944 19.5609 23.7289 19.4613 23.3307 19.2623C22.9326 19.0633 20.9752 18.1001 20.6104 17.9672C20.2454 17.8344 19.98 17.7682 19.7145 18.1668C19.449 18.5648 18.6866 19.4613 18.4543 19.7268C18.2221 19.9929 17.9897 20.0261 17.5917 19.8269C17.1934 19.6272 15.9113 19.2073 14.3901 17.8512C13.2066 16.7959 12.4076 15.4928 12.1754 15.0942C11.9431 14.6962 12.1505 14.4804 12.3501 14.2821C12.529 14.1037 12.7484 13.8172 12.9476 13.5848C13.1461 13.3523 13.2124 13.1864 13.3451 12.9209C13.478 12.6552 13.4115 12.4227 13.3121 12.2236C13.2124 12.0244 12.4388 10.0556 12.0848 9.26843Z" fill="white"/>
</g>
<defs>
<linearGradient id="paint0_linear_4001_7149" x1="1545.14" y1="3103.62" x2="1545.14" y2="0.556641" gradientUnits="userSpaceOnUse">
<stop stop-color="#1FAF38"/>
<stop offset="1" stop-color="#60D669"/>
</linearGradient>
<linearGradient id="paint1_linear_4001_7149" x1="1600" y1="3214.34" x2="1600" y2="0" gradientUnits="userSpaceOnUse">
<stop stop-color="#F9F9F9"/>
<stop offset="1" stop-color="white"/>
</linearGradient>
<clipPath id="clip0_4001_7149">
<rect width="32" height="32" fill="white"/>
</clipPath>
</defs>
</svg>
