<svg width="42" height="42" viewBox="0 0 42 42" fill="none" xmlns="http://www.w3.org/2000/svg">
<g clip-path="url(#clip0_2334_38680)">
<path d="M21 42C32.598 42 42 32.598 42 21C42 9.40202 32.598 0 21 0C9.40202 0 0 9.40202 0 21C0 32.598 9.40202 42 21 42Z" fill="white"/>
<path d="M16.0653 5.77494C12.1803 7.13994 8.82025 10.0799 6.93025 13.7549C6.30025 15.0149 5.77525 16.3799 5.56525 17.8499C4.83025 21.3149 5.35525 25.0949 6.93025 28.2449C7.98025 30.3449 9.45025 32.1299 11.3403 33.5999C13.0203 34.9649 15.0153 36.0149 17.2203 36.5399C19.9503 37.2749 22.7853 37.2749 25.4103 36.6449C27.8253 36.1199 30.1353 34.9649 32.0253 33.1799C34.0203 31.3949 35.3853 29.0849 36.1203 26.4599C36.9603 23.7299 37.0653 20.7899 36.5403 17.9549H21.4203V24.2549H30.1353C29.8203 26.2499 28.5603 28.1399 26.8803 29.1899C25.8303 29.9249 24.5703 30.3449 23.3103 30.5549C22.0503 30.7649 20.6853 30.7649 19.4253 30.5549C18.1653 30.3449 16.9053 29.7149 15.8553 28.9799C14.1753 27.8249 12.8103 26.0399 12.1803 24.0449C11.4453 22.0499 11.4453 19.8449 12.1803 17.7449C12.7053 16.3799 13.4403 15.0149 14.4903 13.9649C15.7503 12.5999 17.4303 11.6549 19.3203 11.3399C20.8953 11.0249 22.4703 11.0249 24.0453 11.5499C25.3053 11.9699 26.5653 12.7049 27.5103 13.5449L30.4503 10.6049L32.0253 9.02994C30.5553 7.66494 28.7703 6.50994 26.8803 5.77494C23.4153 4.61994 19.5303 4.61994 16.0653 5.77494Z" fill="white"/>
<path d="M16.0647 5.77494C19.5297 4.61994 23.4147 4.61994 26.8797 5.87994C28.7697 6.61494 30.5547 7.66494 32.0247 9.13494L30.4497 10.7099L27.5097 13.6499C26.5647 12.7049 25.3047 11.9699 24.0447 11.6549C22.5747 11.2349 20.8947 11.1299 19.3197 11.4449C17.5347 11.8649 15.8547 12.8099 14.4897 14.0699C13.4397 15.1199 12.5997 16.4849 12.1797 17.8499C10.3947 16.4849 8.71469 15.1199 6.92969 13.7549C8.81969 10.0799 12.1797 7.13994 16.0647 5.77494Z" fill="#EA4335"/>
<path d="M5.56525 17.8499C5.88025 16.4849 6.30025 15.1199 6.93025 13.7549C8.71525 15.1199 10.3953 16.4849 12.1803 17.8499C11.4453 19.8449 11.4453 22.0499 12.1803 24.1499C10.3953 25.5149 8.71525 26.8799 6.93025 28.2449C5.35525 24.9899 4.83025 21.3149 5.56525 17.8499Z" fill="#FBBC05"/>
<path d="M21.3145 17.9551H36.4345C36.9595 20.7901 36.8545 23.7301 36.0145 26.4601C35.2795 28.9801 33.9145 31.2901 31.9195 33.1801C30.2395 31.8151 28.5595 30.5551 26.7745 29.1901C28.4545 28.0351 29.6095 26.2501 30.0295 24.2551H21.3145V17.9551Z" fill="#4285F4"/>
<path d="M6.92969 28.2449C8.71469 26.8799 10.3947 25.5149 12.1797 24.1499C12.8097 26.1449 14.1747 27.9299 15.8547 29.0849C16.9047 29.8199 18.1647 30.3449 19.4247 30.6599C20.6847 30.8699 21.9447 30.8699 23.3097 30.6599C24.5697 30.4499 25.8297 29.9249 26.8797 29.2949C28.5597 30.6599 30.2397 31.9199 32.0247 33.2849C30.1347 34.9649 27.9297 36.1199 25.4097 36.7499C22.6797 37.3799 19.8447 37.3799 17.2197 36.6449C15.1197 36.1199 13.1247 35.0699 11.3397 33.7049C9.55469 32.1299 7.97969 30.2399 6.92969 28.2449Z" fill="#34A853"/>
</g>
<defs>
<clipPath id="clip0_2334_38680">
<rect width="42" height="42" fill="white"/>
</clipPath>
</defs>
</svg>
