<svg width="40" height="40" viewBox="0 0 40 40" fill="none" xmlns="http://www.w3.org/2000/svg">
<rect width="40" height="40" rx="20" fill="#4EBDF5"/>
<path d="M26.75 27.875H13.25C12.9425 27.875 12.6875 27.535 12.6875 27.125C12.6875 26.715 12.9425 26.375 13.25 26.375H26.75C27.0575 26.375 27.3125 26.715 27.3125 27.125C27.3125 27.535 27.0575 27.875 26.75 27.875Z" fill="white"/>
<path d="M25.2651 13.6093C23.8101 12.1543 22.3851 12.1168 20.8926 13.6093L19.9851 14.5168C19.9101 14.5918 19.8801 14.7118 19.9101 14.8168C20.4801 16.8043 22.0701 18.3943 24.0576 18.9643C24.0876 18.9718 24.1176 18.9793 24.1476 18.9793C24.2301 18.9793 24.3051 18.9493 24.3651 18.8893L25.2651 17.9818C26.0076 17.2468 26.3676 16.5343 26.3676 15.8143C26.3751 15.0718 26.0151 14.3518 25.2651 13.6093Z" fill="white"/>
<path d="M22.7075 19.6471C22.49 19.5421 22.28 19.4371 22.0775 19.3171C21.9125 19.2196 21.755 19.1146 21.5975 19.0021C21.47 18.9196 21.32 18.7996 21.1775 18.6796C21.1625 18.6721 21.11 18.6271 21.05 18.5671C20.8025 18.3571 20.525 18.0871 20.2775 17.7871C20.255 17.7721 20.2175 17.7196 20.165 17.6521C20.09 17.5621 19.9625 17.4121 19.85 17.2396C19.76 17.1271 19.655 16.9621 19.5575 16.7971C19.4375 16.5946 19.3325 16.3921 19.2275 16.1821C19.0898 15.8871 18.7026 15.7995 18.4724 16.0297L14.255 20.2471C14.1575 20.3446 14.0675 20.5321 14.045 20.6596L13.64 23.5321C13.565 24.0421 13.7075 24.5221 14.0225 24.8446C14.2925 25.1071 14.6675 25.2496 15.0725 25.2496C15.1625 25.2496 15.2525 25.2421 15.3425 25.2271L18.2225 24.8221C18.3575 24.7996 18.545 24.7096 18.635 24.6121L22.8594 20.3877C23.085 20.1621 23.0002 19.774 22.7075 19.6471Z" fill="white"/>
</svg>
