<svg width="32" height="32" viewBox="0 0 32 32" fill="none" xmlns="http://www.w3.org/2000/svg">
<path d="M11.1875 24.6535V11.1068C11.1875 10.5735 11.3475 10.0535 11.6408 9.61346L15.2808 4.20013C15.8542 3.33346 17.2808 2.72013 18.4942 3.17346C19.8008 3.61346 20.6675 5.08013 20.3875 6.3868L19.6942 10.7468C19.6408 11.1468 19.7475 11.5068 19.9742 11.7868C20.2008 12.0401 20.5342 12.2001 20.8942 12.2001H26.3742C27.4275 12.2001 28.3342 12.6268 28.8675 13.3735C29.3742 14.0935 29.4675 15.0268 29.1342 15.9735L25.8542 25.9601C25.4408 27.6135 23.6408 28.9601 21.8542 28.9601H16.6542C15.7608 28.9601 14.5075 28.6535 13.9342 28.0801L12.2275 26.7601C11.5742 26.2668 11.1875 25.4801 11.1875 24.6535Z" fill="#9BE931"/>
<path d="M6.94602 8.50684H5.57268C3.50602 8.50684 2.66602 9.30684 2.66602 11.2802V24.6935C2.66602 26.6668 3.50602 27.4668 5.57268 27.4668H6.94602C9.01268 27.4668 9.85268 26.6668 9.85268 24.6935V11.2802C9.85268 9.30684 9.01268 8.50684 6.94602 8.50684Z" fill="#9BE931"/>
</svg>
