<svg width="24" height="24" viewBox="0 0 24 24" fill="none" xmlns="http://www.w3.org/2000/svg">
<path d="M3.01128 9.9714C5.34345 15.052 9.48658 19.0789 14.6298 21.2639L15.4557 21.6322C16.3703 22.0397 17.3993 22.1111 18.3613 21.8339C19.3234 21.5566 20.1568 20.9485 20.7147 20.1167L21.7945 18.5076C21.9634 18.2553 22.0318 17.9488 21.9862 17.6485C21.9406 17.3482 21.7842 17.0759 21.5479 16.8852L17.8897 13.932C17.7622 13.8293 17.6154 13.7533 17.4579 13.7087C17.3005 13.6642 17.1356 13.6519 16.9733 13.6727C16.8109 13.6934 16.6545 13.7468 16.5133 13.8296C16.3721 13.9124 16.2491 14.0229 16.1516 14.1544L15.0196 15.6821C12.1139 14.2461 9.76196 11.8923 8.32741 8.98458L9.8529 7.85193C9.98437 7.75441 10.0948 7.63132 10.1775 7.49004C10.2603 7.34875 10.3136 7.1922 10.3344 7.02977C10.3551 6.86734 10.3429 6.70239 10.2983 6.54482C10.2538 6.38725 10.1779 6.24032 10.0752 6.11284L7.12378 2.45237C6.93322 2.21593 6.66108 2.05948 6.36097 2.01381C6.06086 1.96815 5.75454 2.0366 5.50235 2.20566L3.88334 3.29213C3.04699 3.85333 2.4369 4.69339 2.16176 5.66265C1.88662 6.63191 1.96428 7.66743 2.38093 8.58475L3.01128 9.9714Z" fill="#4EBDF5"/>
</svg>
