<svg width="24" height="24" viewBox="0 0 24 24" fill="none" xmlns="http://www.w3.org/2000/svg">
<rect x="1" y="1" width="22" height="22" rx="11" stroke="#4EBDF5" stroke-width="2"/>
<path d="M12.5 5.86364L12.3864 14.2273H11.0682L10.9545 5.86364H12.5ZM11.7273 17.5909C11.447 17.5909 11.2064 17.4905 11.0057 17.2898C10.8049 17.089 10.7045 16.8485 10.7045 16.5682C10.7045 16.2879 10.8049 16.0473 11.0057 15.8466C11.2064 15.6458 11.447 15.5455 11.7273 15.5455C12.0076 15.5455 12.2481 15.6458 12.4489 15.8466C12.6496 16.0473 12.75 16.2879 12.75 16.5682C12.75 16.7538 12.7027 16.9242 12.608 17.0795C12.517 17.2348 12.3939 17.3598 12.2386 17.4545C12.0871 17.5455 11.9167 17.5909 11.7273 17.5909Z" fill="#4EBDF5"/>
</svg>
