<svg width="42" height="42" viewBox="0 0 42 42" fill="none" xmlns="http://www.w3.org/2000/svg">
<g clip-path="url(#clip0_2334_38696)">
<path d="M42 21C42 9.40202 32.598 0 21 0C9.40202 0 0 9.40202 0 21C0 32.598 9.40202 42 21 42C32.598 42 42 32.598 42 21Z" fill="#005FF9"/>
<mask id="mask0_2334_38696" style="mask-type:luminance" maskUnits="userSpaceOnUse" x="8" y="8" width="26" height="26">
<path d="M33.6004 8.3999H8.40039V33.5999H33.6004V8.3999Z" fill="white"/>
</mask>
<g mask="url(#mask0_2334_38696)">
<path fill-rule="evenodd" clip-rule="evenodd" d="M21.0489 8.3999C27.9716 8.43224 33.6004 14.061 33.6004 21.0161C33.6004 21.9865 33.5034 22.7952 33.3417 23.6041C33.3417 23.6041 33.2447 23.9599 33.2121 24.1216C32.8887 25.1245 32.3387 25.9332 31.5947 26.5153C30.8507 27.0653 29.9449 27.3889 29.0392 27.3889C28.9098 27.3889 28.8128 27.3889 28.7156 27.3889C27.4218 27.2917 26.2571 26.6126 25.5778 25.5126C24.381 26.7419 22.7633 27.3889 21.0489 27.3889C17.5229 27.3889 14.6761 24.5422 14.6761 21.0161C14.6761 17.49 17.5229 14.6433 21.0489 14.6433C24.575 14.6433 27.3894 17.49 27.3894 21.0161V23.0865C27.3894 24.2833 28.1981 24.7686 28.8775 24.8332C29.5568 24.8979 30.4626 24.4775 30.786 23.1835C30.9477 22.4718 31.0126 21.7601 31.0126 21.0161C31.0126 15.4844 26.5158 10.9878 21.0166 10.9878C15.4849 10.9878 10.9883 15.4844 10.9883 21.0161C10.9883 26.5477 15.4849 31.0444 21.0166 31.0444C22.9253 31.0444 24.8014 30.4944 26.4188 29.4591L26.4512 29.4268L28.1335 31.4002L28.1011 31.4325C25.9984 32.8559 23.5397 33.6322 21.0166 33.6322C14.0615 33.6322 8.40039 27.9711 8.40039 21.0161C8.40039 14.061 14.0615 8.3999 21.0166 8.3999H21.0489ZM24.8014 21.0161C24.8014 23.1188 23.087 24.8009 21.0166 24.8009C18.9139 24.8009 17.2317 23.0865 17.2317 21.0161C17.2317 18.9134 18.9462 17.2312 21.0166 17.2312C23.087 17.1989 24.8014 18.9134 24.8014 21.0161Z" fill="white"/>
</g>
</g>
<defs>
<clipPath id="clip0_2334_38696">
<rect width="42" height="42" fill="white"/>
</clipPath>
</defs>
</svg>
