<svg width="32" height="32" viewBox="0 0 32 32" fill="none" xmlns="http://www.w3.org/2000/svg">
<path d="M20.8127 7.33352V20.8802C20.8127 21.4135 20.6527 21.9335 20.3594 22.3735L16.7194 27.7869C16.146 28.6535 14.7194 29.2669 13.506 28.8135C12.1994 28.3735 11.3327 26.9069 11.6127 25.6002L12.306 21.2402C12.3594 20.8402 12.2527 20.4802 12.026 20.2002C11.7994 19.9469 11.466 19.7869 11.106 19.7869H5.62604C4.5727 19.7869 3.66604 19.3602 3.1327 18.6135C2.62604 17.8935 2.5327 16.9602 2.86604 16.0135L6.14604 6.02686C6.55937 4.37352 8.35937 3.02686 10.146 3.02686H15.346C16.2394 3.02686 17.4927 3.33352 18.066 3.90686L19.7727 5.22686C20.426 5.73352 20.8127 6.50686 20.8127 7.33352Z" fill="#9BE931"/>
<path d="M25.0532 23.4799H26.4265C28.4932 23.4799 29.3332 22.6799 29.3332 20.7065V7.30654C29.3332 5.3332 28.4932 4.5332 26.4265 4.5332H25.0532C22.9865 4.5332 22.1465 5.3332 22.1465 7.30654V20.7199C22.1465 22.6799 22.9865 23.4799 25.0532 23.4799Z" fill="#9BE931"/>
</svg>
