<svg width="71" height="58" viewBox="0 0 71 58" fill="none" xmlns="http://www.w3.org/2000/svg">
<g clip-path="url(#clip0_4003_3923)">
<path d="M17.5808 50.7028V47.8127C17.5808 46.724 16.8843 45.9919 15.7622 45.9822C15.1722 45.9726 14.5628 46.1557 14.1372 46.8011C13.8179 46.2905 13.3149 45.9822 12.6088 45.9822C12.1155 45.9822 11.6318 46.1268 11.2546 46.6662V46.0978H10.2486V50.7028H11.2643V48.1498C11.2643 47.3502 11.7092 46.9263 12.396 46.9263C13.0828 46.9263 13.402 47.3599 13.402 48.1402V50.7028H14.4177V48.1498C14.4177 47.3502 14.882 46.9263 15.5494 46.9263C16.2169 46.9263 16.5651 47.3599 16.5651 48.1402V50.7028H17.5808ZM32.6126 46.0978H30.9682V44.701H29.9526V46.0978H29.0143V47.0131H29.9526V49.1132C29.9526 50.1826 30.3685 50.8184 31.5583 50.8184C31.9936 50.8184 32.4966 50.6835 32.8158 50.4619L32.5256 49.6045C32.2257 49.7779 31.8968 49.8646 31.6357 49.8646C31.1327 49.8646 30.9682 49.5564 30.9682 49.0939V47.0131H32.6126V46.0978ZM41.1926 45.9822C40.6122 45.9822 40.235 46.252 39.9738 46.6566V46.0978H38.9775V50.7028H39.9835V48.1209C39.9835 47.3599 40.3124 46.936 40.9701 46.936C41.1733 46.936 41.3861 46.9649 41.5989 47.0516L41.9084 46.1075C41.6859 46.0208 41.3957 45.9822 41.1926 45.9822ZM28.2211 46.4639C27.7374 46.146 27.07 45.9822 26.3348 45.9822C25.1644 45.9822 24.4099 46.541 24.4099 47.4562C24.4099 48.2076 24.9709 48.6701 26.006 48.8146L26.4799 48.882C27.0313 48.9591 27.2925 49.1036 27.2925 49.3637C27.2925 49.7201 26.9249 49.9224 26.2381 49.9224C25.5513 49.9224 25.0387 49.7009 24.7001 49.4408L24.2261 50.2211C24.7775 50.6257 25.4739 50.8184 26.2284 50.8184C27.5633 50.8184 28.3372 50.1922 28.3372 49.3155C28.3372 48.5063 27.7278 48.0824 26.7218 47.9379L26.2478 47.8705C25.8125 47.8127 25.4643 47.726 25.4643 47.4177C25.4643 47.0805 25.7932 46.8782 26.3445 46.8782C26.9346 46.8782 27.5053 47.0998 27.7858 47.2732L28.2211 46.4639ZM55.1653 45.9822C54.5849 45.9822 54.2077 46.252 53.9465 46.6566V46.0978H52.9502V50.7028H53.9562V48.1209C53.9562 47.3599 54.285 46.936 54.9428 46.936C55.1459 46.936 55.3588 46.9649 55.5716 47.0516L55.8811 46.1075C55.6586 46.0208 55.3684 45.9822 55.1653 45.9822ZM42.2034 48.4003C42.2034 49.7972 43.1804 50.8184 44.6701 50.8184C45.3665 50.8184 45.8308 50.6642 46.3338 50.2693L45.8502 49.46C45.4729 49.7298 45.0763 49.8743 44.641 49.8743C43.8382 49.8646 43.2481 49.2866 43.2481 48.4003C43.2481 47.514 43.8382 46.936 44.641 46.9263C45.0763 46.9263 45.4729 47.0709 45.8502 47.3406L46.3338 46.5314C45.8308 46.1364 45.3665 45.9822 44.6701 45.9822C43.1804 45.9822 42.2034 47.0034 42.2034 48.4003ZM51.625 48.4003V46.0978H50.619V46.6566C50.2998 46.2424 49.8161 45.9822 49.1583 45.9822C47.8622 45.9822 46.8465 46.9938 46.8465 48.4003C46.8465 49.8068 47.8622 50.8184 49.1583 50.8184C49.8161 50.8184 50.2998 50.5583 50.619 50.144V50.7028H51.625V48.4003ZM47.8815 48.4003C47.8815 47.5911 48.4135 46.9263 49.2841 46.9263C50.1547 46.9263 50.677 47.5622 50.677 48.4003C50.677 49.2385 50.116 49.8743 49.2841 49.8743C48.4522 49.8743 47.8815 49.2096 47.8815 48.4003ZM35.7419 45.9822C34.3876 45.9822 33.4397 46.9649 33.4397 48.4003C33.4397 49.8357 34.4263 50.8184 35.8096 50.8184C36.506 50.8184 37.1444 50.645 37.7055 50.1729L37.2122 49.4311C36.8252 49.7394 36.3319 49.9128 35.8676 49.9128C35.2195 49.9128 34.6295 49.6142 34.4844 48.7857H37.9183C37.928 48.6604 37.9376 48.5352 37.9376 48.4003C37.928 46.9649 37.038 45.9822 35.7419 45.9822ZM35.7225 46.8782C36.3706 46.8782 36.7865 47.2828 36.8929 47.9957H34.494C34.6004 47.331 35.0067 46.8782 35.7225 46.8782ZM60.9546 48.4003V44.2482H59.9486V46.6566C59.6294 46.2424 59.1457 45.9822 58.488 45.9822C57.1918 45.9822 56.1761 46.9938 56.1761 48.4003C56.1761 49.8068 57.1918 50.8184 58.488 50.8184C59.1457 50.8184 59.6294 50.5583 59.9486 50.144V50.7028H60.9546V48.4003ZM57.2111 48.4003C57.2111 47.5911 57.7432 46.9263 58.6137 46.9263C59.4843 46.9263 60.0066 47.5622 60.0066 48.4003C60.0066 49.2385 59.4456 49.8743 58.6137 49.8743C57.7818 49.8743 57.2111 49.2096 57.2111 48.4003ZM23.2443 48.4003V46.0978H22.2383V46.6566C21.9191 46.2424 21.4355 45.9822 20.7777 45.9822C19.4815 45.9822 18.4658 46.9938 18.4658 48.4003C18.4658 49.8068 19.4815 50.8184 20.7777 50.8184C21.4355 50.8184 21.9191 50.5583 22.2383 50.144V50.7028H23.2443V48.4003ZM19.5008 48.4003C19.5008 47.5911 20.0329 46.9263 20.9034 46.9263C21.774 46.9263 22.2964 47.5622 22.2964 48.4003C22.2964 49.2385 21.7353 49.8743 20.9034 49.8743C20.0716 49.8743 19.5008 49.2096 19.5008 48.4003ZM62.628 50.0332C62.6909 50.0332 62.7538 50.0429 62.8118 50.067C62.8699 50.091 62.9182 50.1248 62.9617 50.1633C63.0053 50.2066 63.0391 50.2548 63.0633 50.3078C63.0875 50.3608 63.102 50.4234 63.102 50.486C63.102 50.5486 63.0875 50.6064 63.0633 50.6642C63.0391 50.7172 63.0053 50.7702 62.9617 50.8088C62.9182 50.8521 62.8699 50.881 62.8118 50.9051C62.7538 50.9292 62.6957 50.9436 62.628 50.9436C62.5603 50.9436 62.5023 50.9292 62.4442 50.9051C62.3862 50.881 62.3378 50.8473 62.2943 50.8088C62.2508 50.7654 62.2169 50.7172 62.1927 50.6642C62.1686 50.6113 62.154 50.5486 62.154 50.486C62.154 50.4234 62.1686 50.3656 62.1927 50.3078C62.2169 50.25 62.2508 50.2018 62.2943 50.1633C62.3378 50.1199 62.3862 50.091 62.4442 50.067C62.5023 50.0429 62.5652 50.0332 62.628 50.0332ZM62.628 50.8473C62.6764 50.8473 62.7248 50.8377 62.7683 50.8184C62.8118 50.7991 62.8505 50.775 62.8795 50.7413C62.9134 50.7076 62.9376 50.6691 62.9569 50.6257C62.9763 50.5824 62.9859 50.5342 62.9859 50.486C62.9859 50.4379 62.9763 50.3897 62.9569 50.3463C62.9376 50.303 62.9134 50.2644 62.8795 50.2307C62.8457 50.197 62.8118 50.1729 62.7683 50.1537C62.7248 50.1344 62.6812 50.1248 62.628 50.1248C62.5748 50.1248 62.5313 50.1344 62.4878 50.1537C62.4442 50.1729 62.4056 50.197 62.3717 50.2307C62.3378 50.2644 62.3137 50.303 62.2943 50.3463C62.275 50.3897 62.2653 50.4379 62.2653 50.486C62.2653 50.5342 62.275 50.5824 62.2943 50.6257C62.3137 50.6691 62.3378 50.7076 62.3717 50.7413C62.4056 50.775 62.4442 50.7991 62.4878 50.8184C62.5313 50.8377 62.5797 50.8473 62.628 50.8473ZM62.6571 50.2741C62.7103 50.2741 62.7538 50.2885 62.7828 50.3126C62.8118 50.3367 62.8263 50.3704 62.8263 50.4138C62.8263 50.4475 62.8167 50.4764 62.7925 50.5005C62.7683 50.5246 62.7344 50.539 62.6909 50.5438L62.8312 50.7028H62.7199L62.5893 50.5438H62.5458V50.7028H62.4539V50.2789H62.6522L62.6571 50.2741ZM62.5506 50.356V50.4716H62.6571C62.6571 50.4716 62.7006 50.4716 62.7151 50.4571C62.7296 50.4475 62.7344 50.433 62.7344 50.4138C62.7344 50.3945 62.7296 50.3801 62.7151 50.3704C62.7006 50.3608 62.6812 50.356 62.6571 50.356H62.5506ZM62.0041 35.3851V34.8264H62.2314V34.7108H61.6559V34.8264H61.8832V35.3851H62.009H62.0041ZM63.1214 35.3851V34.7108H62.9472L62.7441 35.1732L62.541 34.7108H62.3669V35.3851H62.4926V34.8793L62.6812 35.3177H62.8118L63.0004 34.8793V35.3899H63.1262L63.1214 35.3851ZM33.9523 38.7328C34.0878 38.8485 34.2329 38.9641 34.3731 39.0797C31.6115 40.9101 28.2985 41.9794 24.734 41.9794C15.119 41.9794 7.32251 34.2146 7.32251 24.6387C7.32251 15.0627 15.1238 7.30273 24.7388 7.30273C28.3033 7.30273 31.6163 8.37208 34.378 10.2025C34.2377 10.3181 34.0926 10.4289 33.9572 10.5493C29.8558 14.1042 27.5004 19.2438 27.5004 24.6435C27.5004 30.0432 29.851 35.1828 33.9572 38.7377L33.9523 38.7328ZM46.2613 7.30273C42.6968 7.30273 39.3838 8.37208 36.6221 10.2025C36.7624 10.3181 36.9075 10.4289 37.0429 10.5493C41.1442 14.1042 43.4996 19.239 43.4996 24.6435C43.4996 30.048 41.1491 35.1828 37.0477 38.7377C36.9123 38.8533 36.7672 38.9689 36.6269 39.0845C39.3886 40.9149 42.7016 41.9842 46.2661 41.9842C55.8811 41.9842 63.6776 34.2194 63.6776 24.6435C63.6776 15.0675 55.8763 7.30273 46.2613 7.30273ZM35.5 11.0165C35.2776 11.19 35.0551 11.373 34.8423 11.5609C31.1714 14.74 28.8498 19.422 28.8498 24.6435C28.8498 29.865 31.1714 34.547 34.8423 37.7261C35.0551 37.914 35.2776 38.0922 35.5 38.2704C35.7225 38.0922 35.945 37.914 36.1578 37.7261C39.8287 34.547 42.1502 29.865 42.1502 24.6435C42.1502 19.422 39.8287 14.74 36.1578 11.5609C35.945 11.373 35.7225 11.1948 35.5 11.0165Z" fill="white"/>
</g>
<defs>
<clipPath id="clip0_4003_3923">
<rect width="71" height="58" fill="white"/>
</clipPath>
</defs>
</svg>
