<svg width="58" height="32" viewBox="0 0 58 32" fill="none" xmlns="http://www.w3.org/2000/svg">
<g clip-path="url(#clip0_4003_7764)">
<path fill-rule="evenodd" clip-rule="evenodd" d="M40.4426 31.8216L41.3342 31.7989L42.2135 31.7395L43.0773 31.6375L43.935 31.4988L44.768 31.3232L45.5886 31.108L46.3938 30.8588L47.1805 30.5756L47.9487 30.2527L48.6953 29.9073L49.4172 29.5221L50.1206 29.1087L50.7963 28.6641L51.4503 28.194L52.0797 27.6956L52.6782 27.1688L53.2551 26.6166L53.7981 26.0389L54.3102 25.4386L54.7945 24.8184L55.2419 24.1727L55.6615 23.5101L56.0409 22.8248L56.3926 22.1196L56.7011 21.3975L56.9726 20.6584L57.2071 19.9051L57.3984 19.1405L57.5496 18.3533L57.6606 17.5632L57.7254 16.7533L57.7501 15.9349L57.7254 15.1221L57.6606 14.3207L57.5496 13.5306L57.3984 12.7547L57.2071 11.9901L56.9726 11.2396L56.7011 10.5034L56.3926 9.7869L56.0409 9.0846L55.6615 8.39929L55.2419 7.7423L54.7945 7.09664L54.3102 6.47363L53.7981 5.88177L53.2551 5.30407L52.6782 4.75186L52.0797 4.22796L51.4503 3.73239L50.7963 3.25947L50.1206 2.8177L49.4172 2.40425L48.6953 2.02478L47.9487 1.67646L47.1805 1.35646L46.3938 1.07328L45.5886 0.82124L44.768 0.608851L43.935 0.430443L43.0773 0.291682L42.2135 0.189735L41.3342 0.133098L40.4426 0.110443L39.5572 0.133098L38.678 0.189735L37.8172 0.291682L36.9657 0.430443L36.1327 0.608851L35.309 0.82124L34.5131 1.07328L33.7264 1.35646L32.9613 1.67646L32.2239 2.02478L31.4989 2.40425L30.8017 2.8177L30.126 3.25947L29.472 3.73239L28.8488 4.22796L28.2472 4.75186L27.6765 5.30407L27.1366 5.88177L26.6244 6.47363L26.1463 7.09664L25.6958 7.7423L25.2824 8.39929L24.8999 9.0846L24.5543 9.7869L24.2458 10.5034L23.9774 11.2396L23.746 11.9901L23.5517 12.7547L23.4005 13.5306L23.2894 14.3207L23.2277 15.1221L23.2031 15.9349L23.2277 16.7533L23.2894 17.5632L23.4005 18.3533L23.5517 19.1405L23.746 19.9051L23.9774 20.6584L24.2458 21.3975L24.5543 22.1196L24.8999 22.8248L25.2824 23.5101L25.6958 24.1727L26.1463 24.8184L26.6244 25.4386L27.1366 26.0389L27.6765 26.6166L28.2472 27.1688L28.8488 27.6956L29.472 28.194L30.126 28.6641L30.8017 29.1087L31.4989 29.5221L32.2239 29.9073L32.9613 30.2527L33.7264 30.5756L34.5131 30.8588L35.309 31.108L36.1327 31.3232L36.9657 31.4988L37.8172 31.6375L38.678 31.7395L39.5572 31.7989L40.4426 31.8216Z" fill="#FAB51D"/>
<path fill-rule="evenodd" clip-rule="evenodd" d="M17.3352 31.8216L18.2206 31.7989L19.0999 31.7395L19.9637 31.6375L20.8152 31.4988L21.6482 31.3232L22.4688 31.108L23.2678 30.8588L24.0545 30.5756L24.8166 30.2527L25.557 29.9073L26.2789 29.5221L26.9792 29.1087L27.6549 28.6641L28.3058 28.194L28.929 27.6956L29.5306 27.1688L30.1014 26.6166L30.6443 26.0389L31.1565 25.4386L31.6347 24.8184L32.082 24.1727L32.4954 23.5101L32.881 22.8248L33.2235 22.1196L33.5351 21.3975L33.8004 20.6584L34.0349 19.9051L34.2261 19.1405L34.3773 18.3533L34.4884 17.5632L34.5532 16.7533L34.5778 15.9349L34.5532 15.1221L34.4884 14.3207L34.3773 13.5306L34.2261 12.7547L34.0349 11.9901L33.8004 11.2396L33.5351 10.5034L33.2235 9.7869L32.881 9.0846L32.4954 8.39929L32.082 7.7423L31.6347 7.09664L31.1565 6.47363L30.6443 5.88177L30.1014 5.30407L29.5306 4.75186L28.929 4.22796L28.3058 3.73239L27.6549 3.25947L26.9792 2.8177L26.2789 2.40425L25.557 2.02478L24.8166 1.67646L24.0545 1.35646L23.2678 1.07328L22.4688 0.82124L21.6482 0.608851L20.8152 0.430443L19.9637 0.291682L19.0999 0.189735L18.2206 0.133098L17.3352 0.110443L16.4436 0.133098L15.5643 0.189735L14.7005 0.291682L13.8459 0.430443L13.0129 0.608851L12.1892 0.82124L11.3871 1.07328L10.6004 1.35646L9.8322 1.67646L9.08561 2.02478L8.36369 2.40425L7.65721 2.8177L6.98157 3.25947L6.33061 3.73239L5.69816 4.22796L5.09965 4.75186L4.52274 5.30407L3.97976 5.88177L3.46763 6.47363L2.98327 7.09664L2.53593 7.7423L2.11635 8.39929L1.73689 9.0846L1.38827 9.7869L1.07976 10.5034L0.805183 11.2396L0.5738 11.9901L0.379437 12.7547L0.228269 13.5306L0.117205 14.3207L0.0524161 15.1221L0.0308228 15.9349L0.0524161 16.7533L0.117205 17.5632L0.228269 18.3533L0.379437 19.1405L0.5738 19.9051L0.805183 20.6584L1.07976 21.3975L1.38827 22.1196L1.73689 22.8248L2.11635 23.5101L2.53593 24.1727L2.98327 24.8184L3.46763 25.4386L3.97976 26.0389L4.52274 26.6166L5.09965 27.1688L5.69816 27.6956L6.33061 28.194L6.98157 28.6641L7.65721 29.1087L8.36369 29.5221L9.08561 29.9073L9.8322 30.2527L10.6004 30.5756L11.3871 30.8588L12.1892 31.108L13.0129 31.3232L13.8459 31.4988L14.7005 31.6375L15.5643 31.7395L16.4436 31.7989L17.3352 31.8216Z" fill="#E40520"/>
<path fill-rule="evenodd" clip-rule="evenodd" d="M26.8682 6.19044H36.0433V5.32956H27.661L26.8682 6.19044Z" fill="#FAB51D"/>
<path fill-rule="evenodd" clip-rule="evenodd" d="M25.4922 8.10478H36.0433V7.2439H26.0476L25.4922 8.10478Z" fill="#FAB51D"/>
<path fill-rule="evenodd" clip-rule="evenodd" d="M24.468 10.0163H36.0433V9.1554H24.8752L24.468 10.0163Z" fill="#FAB51D"/>
<path fill-rule="evenodd" clip-rule="evenodd" d="M23.7615 11.9306H36.0433V11.0697H24.0546L23.7615 11.9306Z" fill="#FAB51D"/>
<path fill-rule="evenodd" clip-rule="evenodd" d="M24.1687 21.1823H36.0741V20.3214H23.8787L24.1687 21.1823Z" fill="#FAB51D"/>
<path fill-rule="evenodd" clip-rule="evenodd" d="M25.0511 23.0966H36.0741V22.2357H24.613L25.0511 23.0966Z" fill="#FAB51D"/>
<path fill-rule="evenodd" clip-rule="evenodd" d="M26.2851 25.0081H36.0742V24.1444H25.6959L26.2851 25.0081Z" fill="#FAB51D"/>
<path fill-rule="evenodd" clip-rule="evenodd" d="M27.9881 26.9225H36.0742V26.0559H27.1644L27.9881 26.9225Z" fill="#FAB51D"/>
<path fill-rule="evenodd" clip-rule="evenodd" d="M23.3481 13.8393H36.0433V12.9784H23.5301L23.3481 13.8393Z" fill="#FAB51D"/>
<path fill-rule="evenodd" clip-rule="evenodd" d="M31.0855 19.2736H35.9291V18.4128H31.2614L31.0855 19.2736Z" fill="#FAB51D"/>
<path fill-rule="evenodd" clip-rule="evenodd" d="M31.4712 17.365H35.9292V16.4984H31.647L31.4712 17.365Z" fill="#FAB51D"/>
<path fill-rule="evenodd" clip-rule="evenodd" d="M23.0272 16.4984H24.2859V17.365H23.0858L23.0272 16.4984Z" fill="#FAB51D"/>
<path fill-rule="evenodd" clip-rule="evenodd" d="M20.6795 15.4535L20.5993 15.4506L20.516 15.4393L20.4419 15.428L20.3648 15.4167L20.2969 15.4053L20.2198 15.3968L20.1427 15.3855L20.0625 15.3742L19.9822 15.3628L19.8866 15.3572L19.7817 15.3543L19.6706 15.3487H19.5503L19.4146 15.3543L19.2634 15.3628L19.0937 15.3742L18.9796 15.3912L18.8685 15.4053L18.7698 15.4393L18.6803 15.4705L18.6001 15.5073L18.523 15.5497L18.4644 15.6036L18.4119 15.6517L18.378 15.7112L18.3502 15.7706L18.3379 15.8358V15.8981L18.3564 15.9689L18.378 16.0368L18.4243 16.1076L18.4829 16.1756L18.6001 16.2775L18.7389 16.3597L18.9025 16.4276L19.0783 16.4871L19.2634 16.5409L19.4578 16.6004L19.6491 16.6627L19.8342 16.7335L20.01 16.8241L20.1735 16.9374L20.3185 17.0705L20.4419 17.2347L20.5345 17.4386L20.5931 17.6793L20.6147 17.9682L20.5931 18.3051L20.553 18.5572L20.482 18.7752L20.3895 18.9791L20.2722 19.1547L20.1396 19.3105L19.9853 19.4436L19.8249 19.5625L19.6429 19.6644L19.4578 19.7437L19.2634 19.8145L19.066 19.8683L18.8624 19.9108L18.6649 19.942L18.4705 19.959L18.2793 19.9674L18.0972 19.9731H17.8474L17.616 19.9674H17.4124L17.218 19.9646L17.0452 19.959L16.8879 19.9476L16.746 19.9363L16.6133 19.9193L16.4899 19.9108L16.3788 19.8882L16.2678 19.8712L16.1691 19.8457L16.0703 19.823L15.9778 19.7919L15.8852 19.7607L15.7865 19.7267L16.0487 18.5459L16.1012 18.5572L16.1629 18.5713L16.2462 18.594L16.3449 18.6166L16.4498 18.6365L16.567 18.6591L16.6935 18.6846L16.8354 18.7073L16.9804 18.7271L17.1316 18.7497L17.2889 18.7667L17.4525 18.7809L17.6221 18.7866L17.7887 18.7922H17.9584L18.1281 18.7866L18.2978 18.7554L18.4304 18.7129L18.5353 18.6535L18.6186 18.577L18.6742 18.5034L18.7235 18.4184L18.7513 18.3335L18.776 18.2513L18.7852 18.0956L18.7328 17.9625L18.6341 17.8549L18.4891 17.7643L18.3132 17.685L18.1096 17.6057L17.8844 17.5292L17.6561 17.4443L17.4216 17.348L17.2026 17.2347L16.9989 17.0959L16.8108 16.9317L16.6658 16.7278L16.5609 16.4871L16.5084 16.1982L16.5146 15.8556L16.5423 15.646L16.5825 15.4506L16.6411 15.2666L16.712 15.0966L16.8046 14.9352L16.9095 14.7965L17.0329 14.6634L17.1779 14.5444L17.3476 14.4453L17.5327 14.3575L17.7425 14.2782L17.9769 14.2188L18.2392 14.1706L18.523 14.1338L18.8377 14.1112L19.1832 14.1055H19.3992L19.5966 14.1112L19.7755 14.1168L19.9391 14.1225L20.0871 14.1338L20.2198 14.1451L20.337 14.1565L20.4419 14.165L20.5406 14.1763L20.6209 14.1933L20.698 14.2046L20.7659 14.2131L20.8245 14.2244L20.8769 14.2301L20.9294 14.2414L20.9787 14.2471L20.6795 15.4535Z" fill="white"/>
<path d="M20.6795 15.4535L20.5993 15.4506L20.516 15.4393L20.4419 15.428L20.3648 15.4167L20.2969 15.4053L20.2198 15.3968L20.1427 15.3855L20.0625 15.3742L19.9822 15.3628L19.8866 15.3572L19.7817 15.3543L19.6706 15.3487H19.5503L19.4146 15.3543L19.2634 15.3628L19.0937 15.3742L18.9796 15.3912L18.8685 15.4053L18.7698 15.4393L18.6803 15.4705L18.6001 15.5073L18.523 15.5497L18.4644 15.6036L18.4119 15.6517L18.378 15.7112L18.3502 15.7706L18.3379 15.8358V15.8981L18.3564 15.9689L18.378 16.0368L18.4243 16.1076L18.4829 16.1756L18.6001 16.2775L18.7389 16.3597L18.9025 16.4276L19.0783 16.4871L19.2634 16.5409L19.4578 16.6004L19.6491 16.6627L19.8342 16.7335L20.01 16.8241L20.1735 16.9374L20.3185 17.0705L20.4419 17.2347L20.5345 17.4386L20.5931 17.6793L20.6147 17.9682L20.5931 18.3051L20.553 18.5572L20.482 18.7752L20.3895 18.9791L20.2722 19.1547L20.1396 19.3105L19.9853 19.4436L19.8249 19.5625L19.6429 19.6644L19.4578 19.7437L19.2634 19.8145L19.066 19.8683L18.8624 19.9108L18.6649 19.942L18.4705 19.959L18.2793 19.9674L18.0972 19.9731H17.8474L17.616 19.9674H17.4124L17.218 19.9646L17.0452 19.959L16.8879 19.9476L16.746 19.9363L16.6133 19.9193L16.4899 19.9108L16.3788 19.8882L16.2678 19.8712L16.1691 19.8457L16.0703 19.823L15.9778 19.7919L15.8852 19.7607L15.7865 19.7267L16.0487 18.5459L16.1012 18.5572L16.1629 18.5713L16.2462 18.594L16.3449 18.6166L16.4498 18.6365L16.567 18.6591L16.6935 18.6846L16.8354 18.7073L16.9804 18.7271L17.1316 18.7497L17.2889 18.7667L17.4525 18.7809L17.6221 18.7866L17.7887 18.7922H17.9584L18.1281 18.7866L18.2978 18.7554L18.4304 18.7129L18.5353 18.6535L18.6186 18.577L18.6742 18.5034L18.7235 18.4184L18.7513 18.3335L18.776 18.2513L18.7852 18.0956L18.7328 17.9625L18.6341 17.8549L18.4891 17.7643L18.3132 17.685L18.1096 17.6057L17.8844 17.5292L17.6561 17.4443L17.4216 17.348L17.2026 17.2347L16.9989 17.0959L16.8108 16.9317L16.6658 16.7278L16.5609 16.4871L16.5084 16.1982L16.5146 15.8556L16.5423 15.646L16.5825 15.4506L16.6411 15.2666L16.712 15.0966L16.8046 14.9352L16.9095 14.7965L17.0329 14.6634L17.1779 14.5444L17.3476 14.4453L17.5327 14.3575L17.7425 14.2782L17.9769 14.2188L18.2392 14.1706L18.523 14.1338L18.8377 14.1112L19.1832 14.1055H19.3992L19.5966 14.1112L19.7755 14.1168L19.9391 14.1225L20.0871 14.1338L20.2198 14.1451L20.337 14.1565L20.4419 14.165L20.5406 14.1763L20.6209 14.1933L20.698 14.2046L20.7659 14.2131L20.8245 14.2244L20.8769 14.2301L20.9294 14.2414L20.9787 14.2471L20.6795 15.4535Z" stroke="white" stroke-width="0.22" stroke-miterlimit="2.61"/>
<path fill-rule="evenodd" clip-rule="evenodd" d="M22.0616 12.9246H23.6751L23.4345 14.2188H24.4094L24.1996 15.428L23.1753 15.4025L22.6138 18.3844L22.6077 18.492L22.6385 18.5826L22.6971 18.6534L22.7712 18.7129L22.8761 18.7497L22.9933 18.7809L23.1198 18.8035L23.2617 18.812L23.3882 18.8092L23.5054 18.7979L23.6103 18.7809L23.7029 18.7611L23.78 18.7384L23.8325 18.7214L23.8664 18.7129L23.8787 18.7072L23.6751 19.7012L23.635 19.7267L23.5918 19.7494L23.5517 19.772L23.5116 19.7918L23.4715 19.8088L23.4252 19.823L23.3728 19.84L23.3203 19.857L23.2617 19.8711L23.2031 19.8825L23.1321 19.8938L23.0643 19.9051L22.9871 19.9165L22.9007 19.9249L22.8082 19.9363L22.7064 19.9476H22.2652L22.0308 19.9306L21.8271 19.9108L21.642 19.8768L21.4847 19.84L21.3489 19.7918L21.241 19.738L21.1392 19.6757L21.0651 19.6049L21.0065 19.5313L20.9664 19.4379L20.9355 19.3472L20.9201 19.2453L20.9139 19.1349V19.0159L20.9294 18.8941L20.9479 18.7611L22.0616 12.9246Z" fill="white"/>
<path d="M22.0616 12.9246H23.6751L23.4345 14.2188H24.4094L24.1996 15.428L23.1753 15.4025L22.6138 18.3844L22.6077 18.492L22.6385 18.5826L22.6971 18.6534L22.7712 18.7129L22.8761 18.7497L22.9933 18.7809L23.1198 18.8035L23.2617 18.812L23.3882 18.8092L23.5054 18.7979L23.6103 18.7809L23.7029 18.7611L23.78 18.7384L23.8325 18.7214L23.8664 18.7129L23.8787 18.7072L23.6751 19.7012L23.635 19.7267L23.5918 19.7494L23.5517 19.772L23.5116 19.7918L23.4715 19.8088L23.4252 19.823L23.3728 19.84L23.3203 19.857L23.2617 19.8711L23.2031 19.8825L23.1321 19.8938L23.0643 19.9051L22.9871 19.9165L22.9007 19.9249L22.8082 19.9363L22.7064 19.9476H22.2652L22.0308 19.9306L21.8271 19.9108L21.642 19.8768L21.4847 19.84L21.3489 19.7918L21.241 19.738L21.1392 19.6757L21.0651 19.6049L21.0065 19.5313L20.9664 19.4379L20.9355 19.3472L20.9201 19.2453L20.9139 19.1349V19.0159L20.9294 18.8941L20.9479 18.7611L22.0616 12.9246Z" stroke="white" stroke-width="0.22" stroke-miterlimit="2.61"/>
<path fill-rule="evenodd" clip-rule="evenodd" d="M25.6959 17.4443L25.6804 17.5349L25.6743 17.6312L25.6835 17.7331L25.7082 17.8351L25.7483 17.937L25.7946 18.0333L25.8594 18.1352L25.9303 18.2259L26.0105 18.3165L26.1 18.3958L26.1926 18.4779L26.2975 18.5402L26.4024 18.5997L26.5196 18.6478L26.6337 18.6846L26.751 18.7073L26.9021 18.7271L27.0471 18.7441L27.2014 18.7611L27.3526 18.7696L27.5037 18.7752H27.6611L27.8122 18.7696L27.9696 18.7611L28.1269 18.7384L28.2843 18.7129L28.4478 18.679L28.6051 18.6308L28.7686 18.5713L28.9352 18.509L29.0987 18.4241L29.2684 18.3335L29.0339 19.6474L28.9414 19.6899L28.8488 19.7324L28.7563 19.7664L28.6668 19.7975L28.5804 19.823L28.4879 19.8513L28.3953 19.8712L28.2966 19.8882L28.1917 19.9051L28.0745 19.9165L27.9511 19.925L27.8184 19.9363L27.6672 19.942H27.5099L27.3279 19.9476H27.1366L26.8497 19.942L26.5597 19.9165L26.2666 19.8768L25.9766 19.8145L25.6897 19.7324L25.4182 19.6305L25.156 19.4974L24.9092 19.3416L24.6839 19.1604L24.4834 18.9423L24.3168 18.6959L24.1749 18.4128L24.0762 18.0956L24.0114 17.7388L23.996 17.3423L24.0237 16.9034L24.0484 16.7335L24.0824 16.5352L24.1286 16.3257L24.1934 16.102L24.2798 15.8726L24.3847 15.6432L24.5204 15.4053L24.6839 15.1816L24.8691 14.9692L25.0974 14.7653L25.3534 14.5841L25.6434 14.4227L25.9828 14.2896L26.3622 14.1933L26.7818 14.1282L27.2538 14.1055L27.4791 14.1112L27.7197 14.1338L27.9572 14.1706L28.1948 14.2244L28.4293 14.3037L28.6576 14.4L28.8674 14.5303L29.0586 14.6804L29.2345 14.8616L29.3795 15.074L29.4967 15.3204L29.5769 15.6036L29.6232 15.9264L29.6294 16.2889L29.5893 16.6966L29.4998 17.1441L29.472 17.4697H25.2238L25.4923 16.4163H28.0436L28.056 16.2832L28.0498 16.1558L28.0375 16.0368L28.0159 15.932L27.9758 15.8301L27.9326 15.7395L27.877 15.6574L27.8184 15.5837L27.7475 15.5186L27.6734 15.4648L27.584 15.4167L27.4976 15.3742L27.405 15.343L27.3094 15.3204L27.2107 15.3062L27.1058 15.2949L26.9947 15.3005L26.8898 15.3147L26.7911 15.3374L26.6924 15.3685L26.5936 15.411L26.5072 15.4591L26.4178 15.5186L26.3437 15.5837L26.2666 15.6574L26.1987 15.7395L26.134 15.8244L26.0815 15.9151L26.0291 16.0113L25.989 16.119L25.9519 16.2237L25.9303 16.337L25.6959 17.4443Z" fill="white"/>
<path d="M25.6959 17.4443L25.6804 17.5349L25.6743 17.6312L25.6835 17.7331L25.7082 17.8351L25.7483 17.937L25.7946 18.0333L25.8594 18.1352L25.9303 18.2259L26.0105 18.3165L26.1 18.3958L26.1926 18.4779L26.2975 18.5402L26.4024 18.5997L26.5196 18.6478L26.6337 18.6846L26.751 18.7073L26.9021 18.7271L27.0471 18.7441L27.2014 18.7611L27.3526 18.7696L27.5037 18.7752H27.6611L27.8122 18.7696L27.9696 18.7611L28.1269 18.7384L28.2843 18.7129L28.4478 18.679L28.6051 18.6308L28.7686 18.5713L28.9352 18.509L29.0987 18.4241L29.2684 18.3335L29.0339 19.6474L28.9414 19.6899L28.8488 19.7324L28.7563 19.7664L28.6668 19.7975L28.5804 19.823L28.4879 19.8513L28.3953 19.8712L28.2966 19.8882L28.1917 19.9051L28.0745 19.9165L27.9511 19.925L27.8184 19.9363L27.6672 19.942H27.5099L27.3279 19.9476H27.1366L26.8497 19.942L26.5597 19.9165L26.2666 19.8768L25.9766 19.8145L25.6897 19.7324L25.4182 19.6305L25.156 19.4974L24.9092 19.3416L24.6839 19.1604L24.4834 18.9423L24.3168 18.6959L24.1749 18.4128L24.0762 18.0956L24.0114 17.7388L23.996 17.3423L24.0237 16.9034L24.0484 16.7335L24.0824 16.5352L24.1286 16.3257L24.1934 16.102L24.2798 15.8726L24.3847 15.6432L24.5204 15.4053L24.6839 15.1816L24.8691 14.9692L25.0974 14.7653L25.3534 14.5841L25.6434 14.4227L25.9828 14.2896L26.3622 14.1933L26.7818 14.1282L27.2538 14.1055L27.4791 14.1112L27.7197 14.1338L27.9572 14.1706L28.1948 14.2244L28.4293 14.3037L28.6576 14.4L28.8674 14.5303L29.0586 14.6804L29.2345 14.8616L29.3795 15.074L29.4967 15.3204L29.5769 15.6036L29.6232 15.9264L29.6294 16.2889L29.5893 16.6966L29.4998 17.1441L29.472 17.4697H25.2238L25.4923 16.4163H28.0436L28.056 16.2832L28.0498 16.1558L28.0375 16.0368L28.0159 15.932L27.9758 15.8301L27.9326 15.7395L27.877 15.6574L27.8184 15.5837L27.7475 15.5186L27.6734 15.4648L27.584 15.4167L27.4976 15.3742L27.405 15.343L27.3094 15.3204L27.2107 15.3062L27.1058 15.2949L26.9947 15.3005L26.8898 15.3147L26.7911 15.3374L26.6924 15.3685L26.5936 15.411L26.5072 15.4591L26.4178 15.5186L26.3437 15.5837L26.2666 15.6574L26.1987 15.7395L26.134 15.8244L26.0815 15.9151L26.0291 16.0113L25.989 16.119L25.9519 16.2237L25.9303 16.337L25.6959 17.4443Z" stroke="white" stroke-width="0.22" stroke-miterlimit="2.61"/>
<path fill-rule="evenodd" clip-rule="evenodd" d="M39.5942 14.5416L39.5171 14.502L39.4431 14.4708L39.3598 14.434L39.2734 14.3972L39.1839 14.3632L39.0852 14.332L38.9865 14.3009L38.8816 14.2669L38.7705 14.2414L38.6594 14.2188L38.5391 14.1989L38.4157 14.182L38.2831 14.1706L38.1473 14.1593H38.0085H37.8635H37.7154L37.5642 14.1706L37.4069 14.1876L37.2465 14.2131L37.083 14.2556L36.9194 14.3151L36.7559 14.3915L36.5924 14.4878L36.4351 14.6039L36.2839 14.7427L36.1389 14.9154L35.997 15.1136L35.8705 15.3487L35.7471 15.6149L35.636 15.915L35.5435 16.2577L35.5095 16.4503L35.4849 16.6372L35.4725 16.8241L35.4787 17.0053L35.4972 17.1866L35.5373 17.3593L35.5898 17.5179L35.6546 17.6793L35.7409 17.8237L35.8458 17.9625L35.9692 18.0871L36.1081 18.1975L36.2654 18.2938L36.4474 18.3759L36.6449 18.4439L36.867 18.492L36.941 18.509L37.0305 18.526L37.1354 18.5345L37.2495 18.5458L37.3791 18.5572H37.5118H37.6599L37.8049 18.5458L37.956 18.5289L38.1072 18.5034L38.2522 18.4666L38.3972 18.4241L38.5453 18.3646L38.678 18.2938L38.8014 18.2089L38.9186 18.1126L38.6564 19.5398L38.6193 19.5681L38.5854 19.5993L38.5391 19.6361L38.4867 19.6701L38.4219 19.7126L38.3417 19.7494L38.246 19.7862L38.1411 19.8202L38.0085 19.857L37.8573 19.8825L37.6815 19.9051L37.4778 19.925L37.2495 19.9363L36.9873 19.942L36.6911 19.9363L36.3641 19.9193L36.0957 19.8938L35.8304 19.84L35.562 19.7607L35.2936 19.6531L35.0375 19.5257L34.7907 19.3643L34.5593 19.1774L34.3434 18.9621L34.1521 18.7214L33.9886 18.4552L33.8467 18.155L33.7418 17.8294L33.6739 17.4697L33.6492 17.0903L33.6616 16.674L33.7264 16.2294L33.7726 16.0113L33.8251 15.7961L33.8837 15.5894L33.9423 15.3912L34.004 15.2043L34.0811 15.0173L34.1583 14.8389L34.2385 14.6747L34.3249 14.5076L34.4143 14.3519L34.5131 14.2046L34.6179 14.063L34.7228 13.9299L34.837 13.8025L34.9542 13.6835L35.0776 13.5731L35.2103 13.4655L35.346 13.3635L35.4849 13.2729L35.6299 13.188L35.7872 13.1058L35.9446 13.0379L36.1081 12.9727L36.2777 12.9133L36.4598 12.8595L36.6387 12.817L36.8269 12.7802L37.0243 12.749L37.2218 12.7207L37.4316 12.7009L37.6414 12.6896L37.8635 12.6839L38.0486 12.6896L38.2306 12.7009L38.4034 12.715L38.5792 12.7377L38.7427 12.7604L38.9001 12.7915L39.0512 12.817L39.1901 12.851L39.3258 12.8821L39.4431 12.9133L39.551 12.9473L39.6467 12.9784L39.7269 13.0039L39.7978 13.0266L39.8503 13.0492L39.8842 13.0577L39.5942 14.5416Z" fill="white"/>
<path d="M39.5942 14.5416L39.5171 14.502L39.4431 14.4708L39.3598 14.434L39.2734 14.3972L39.1839 14.3632L39.0852 14.332L38.9865 14.3009L38.8816 14.2669L38.7705 14.2414L38.6594 14.2188L38.5391 14.1989L38.4157 14.182L38.2831 14.1706L38.1473 14.1593H38.0085H37.8635H37.7154L37.5642 14.1706L37.4069 14.1876L37.2465 14.2131L37.083 14.2556L36.9194 14.315L36.7559 14.3915L36.5924 14.4878L36.4351 14.6039L36.2839 14.7427L36.1389 14.9154L35.997 15.1136L35.8705 15.3487L35.7471 15.6149L35.636 15.915L35.5435 16.2577L35.5095 16.4503L35.4849 16.6372L35.4725 16.8241L35.4787 17.0053L35.4972 17.1866L35.5373 17.3593L35.5898 17.5179L35.6546 17.6793L35.7409 17.8237L35.8458 17.9625L35.9692 18.0871L36.1081 18.1975L36.2654 18.2938L36.4474 18.3759L36.6449 18.4439L36.867 18.492L36.941 18.509L37.0305 18.526L37.1354 18.5345L37.2495 18.5458L37.3791 18.5572H37.5118H37.6599L37.8049 18.5458L37.956 18.5289L38.1072 18.5034L38.2522 18.4666L38.3972 18.4241L38.5453 18.3646L38.678 18.2938L38.8014 18.2089L38.9186 18.1126L38.6564 19.5398L38.6193 19.5681L38.5854 19.5993L38.5391 19.6361L38.4867 19.6701L38.4219 19.7126L38.3417 19.7494L38.246 19.7862L38.1411 19.8202L38.0085 19.857L37.8573 19.8825L37.6815 19.9051L37.4778 19.925L37.2495 19.9363L36.9873 19.942L36.6911 19.9363L36.3641 19.9193L36.0957 19.8938L35.8304 19.84L35.562 19.7607L35.2936 19.6531L35.0375 19.5257L34.7907 19.3643L34.5593 19.1774L34.3434 18.9621L34.1521 18.7214L33.9886 18.4552L33.8467 18.155L33.7418 17.8294L33.6739 17.4697L33.6492 17.0903L33.6616 16.674L33.7264 16.2294L33.7726 16.0113L33.8251 15.7961L33.8837 15.5894L33.9423 15.3912L34.004 15.2043L34.0811 15.0173L34.1583 14.8389L34.2385 14.6747L34.3249 14.5076L34.4143 14.3519L34.5131 14.2046L34.6179 14.063L34.7228 13.9299L34.837 13.8025L34.9542 13.6835L35.0776 13.5731L35.2103 13.4655L35.346 13.3635L35.4849 13.2729L35.6299 13.188L35.7872 13.1058L35.9446 13.0379L36.1081 12.9727L36.2777 12.9133L36.4598 12.8595L36.6387 12.817L36.8269 12.7802L37.0243 12.749L37.2218 12.7207L37.4316 12.7009L37.6414 12.6896L37.8635 12.6839L38.0486 12.6896L38.2306 12.7009L38.4034 12.715L38.5792 12.7377L38.7427 12.7604L38.9001 12.7915L39.0512 12.817L39.1901 12.851L39.3258 12.8821L39.4431 12.9133L39.551 12.9473L39.6467 12.9784L39.7269 13.0039L39.7978 13.0266L39.8503 13.0492L39.8842 13.0577L39.5942 14.5416Z" stroke="white" stroke-width="0.22" stroke-miterlimit="2.61"/>
<path fill-rule="evenodd" clip-rule="evenodd" d="M53.9369 19.9476H52.3234L52.4406 19.3529V19.2991L52.3481 19.4067L52.2493 19.503L52.1506 19.588L52.0457 19.6644L51.9408 19.7324L51.8359 19.7919L51.7311 19.84L51.62 19.8881L51.5089 19.9249L51.3979 19.9533L51.2868 19.9788L51.1696 19.9957L51.0554 20.0127L50.9444 20.0212L50.8271 20.0269H50.7099L50.4075 20.0071L50.1268 19.9476L49.8707 19.857L49.6393 19.7324L49.4296 19.5795L49.2414 19.3954L49.0779 19.1972L48.939 18.9734L48.8218 18.7327L48.7292 18.4807L48.6645 18.2202L48.6182 17.9483L48.5997 17.6736L48.6058 17.3961L48.6367 17.1242L48.6891 16.8495L48.7755 16.5352L48.8804 16.235L49.0038 15.9632L49.1488 15.7055L49.3 15.4648L49.4758 15.2524L49.6548 15.0598L49.8491 14.8814L50.0528 14.7285L50.2687 14.5926L50.4878 14.4765L50.7099 14.3858L50.9444 14.3094L51.1757 14.2612L51.4102 14.2301L51.6478 14.2188L51.8174 14.2244L51.9809 14.2414L52.1321 14.2669L52.2709 14.3037L52.4067 14.3462L52.5239 14.3972L52.6381 14.4538L52.743 14.5133L52.8355 14.5784L52.925 14.6464L52.999 14.7172L53.07 14.7851L53.1286 14.8559L53.1811 14.9239L53.2273 14.989L53.2613 15.0542L53.6716 12.9529H55.2542L53.9369 19.9476Z" fill="white"/>
<path d="M53.9369 19.9476H52.3234L52.4406 19.3529V19.2991L52.3481 19.4067L52.2493 19.503L52.1506 19.588L52.0457 19.6644L51.9408 19.7324L51.8359 19.7919L51.7311 19.84L51.62 19.8881L51.5089 19.9249L51.3979 19.9533L51.2868 19.9788L51.1696 19.9957L51.0554 20.0127L50.9444 20.0212L50.8271 20.0269H50.7099L50.4075 20.0071L50.1268 19.9476L49.8707 19.857L49.6393 19.7324L49.4296 19.5795L49.2414 19.3954L49.0779 19.1972L48.939 18.9734L48.8218 18.7327L48.7292 18.4807L48.6645 18.2202L48.6182 17.9483L48.5997 17.6736L48.6058 17.3961L48.6367 17.1242L48.6891 16.8495L48.7755 16.5352L48.8804 16.235L49.0038 15.9632L49.1488 15.7055L49.3 15.4648L49.4758 15.2524L49.6548 15.0598L49.8491 14.8814L50.0528 14.7285L50.2687 14.5926L50.4878 14.4765L50.7099 14.3858L50.9444 14.3094L51.1757 14.2612L51.4102 14.2301L51.6478 14.2188L51.8174 14.2244L51.9809 14.2414L52.1321 14.2669L52.2709 14.3037L52.4067 14.3462L52.5239 14.3972L52.6381 14.4538L52.743 14.5133L52.8355 14.5784L52.925 14.6464L52.999 14.7172L53.07 14.7851L53.1286 14.8559L53.1811 14.9239L53.2273 14.989L53.2613 15.0542L53.6716 12.9529H55.2542L53.9369 19.9476Z" stroke="white" stroke-width="0.22" stroke-miterlimit="2.61"/>
<path fill-rule="evenodd" clip-rule="evenodd" d="M51.2992 18.6535L51.4627 18.6421L51.6138 18.611L51.7527 18.5713L51.8884 18.5147L52.0087 18.4496L52.126 18.3703L52.237 18.2797L52.3358 18.1834L52.4221 18.0758L52.5054 17.9568L52.5795 17.8351L52.6443 17.7076L52.7029 17.5717L52.7492 17.4329L52.7893 17.2885L52.8201 17.1441L52.8479 16.994L52.8664 16.8411V16.6966L52.8602 16.5466L52.8417 16.4078L52.8201 16.2719L52.78 16.1444L52.7306 16.0227L52.6751 15.915L52.6042 15.8131L52.527 15.7281L52.4406 15.6517L52.3419 15.5894L52.237 15.5469L52.126 15.5186L52.0026 15.5073L51.8452 15.5186L51.7002 15.5412L51.5676 15.5837L51.4318 15.6375L51.3146 15.7055L51.2004 15.7904L51.1017 15.8839L51.003 15.983L50.9135 16.102L50.8333 16.2237L50.7562 16.354L50.6914 16.4927L50.6359 16.6372L50.5865 16.7816L50.5402 16.9374L50.5063 17.0903L50.4785 17.3253L50.4878 17.583L50.531 17.8464L50.605 18.0956L50.7222 18.3165L50.8734 18.492L51.0647 18.611L51.2992 18.6535Z" fill="#FAB51D"/>
<path fill-rule="evenodd" clip-rule="evenodd" d="M15.5181 18.7611L15.2836 19.9476H13.8151L13.8583 19.7267L13.8861 19.5313L13.9107 19.3812L13.9323 19.2991L13.8521 19.3869L13.7596 19.4718L13.6485 19.5511L13.5251 19.6276L13.3863 19.7012L13.2382 19.7664L13.087 19.8287L12.9297 19.8825L12.7631 19.9306L12.5934 19.9674L12.4237 20.0014L12.2479 20.0212L12.0813 20.0326L11.9116 20.0382L11.7481 20.0212L11.5907 20.0014L11.3871 19.9533L11.1989 19.8995L11.0385 19.8287L10.8904 19.7494L10.7639 19.6644L10.6467 19.5681L10.5542 19.4662L10.4709 19.3586L10.403 19.2453L10.3444 19.1292L10.2981 19.0103L10.2611 18.8942L10.2395 18.7695L10.221 18.6478L10.2086 18.5288V18.4127L10.2271 18.2032L10.2611 18.0049L10.3197 17.818L10.3968 17.6368L10.4894 17.4669L10.5943 17.3111L10.7177 17.1611L10.8565 17.028L11.0015 16.9034L11.165 16.7929L11.3347 16.691L11.5075 16.6032L11.6956 16.5295L11.8869 16.4701L12.0844 16.4219L12.2911 16.3908H12.3003L12.3312 16.3851L12.3713 16.3795L12.4361 16.3738L12.5039 16.3653L12.5872 16.3596L12.6736 16.3483L12.7723 16.337L12.8711 16.3257L12.9729 16.3172L13.0778 16.3115L13.1703 16.3002L13.2629 16.2945L13.3493 16.2888L13.4326 16.2832H13.4973H13.63L13.7688 16.2888L13.8984 16.2945H14.0249L14.1298 16.3002L14.2131 16.3058L14.2717 16.3115H14.2871L14.2995 16.2718L14.3334 16.1756L14.3643 16.0651L14.3766 15.9632L14.3519 15.8442L14.2995 15.7395L14.2285 15.6432L14.136 15.5611L14.0249 15.4931L13.9046 15.4449L13.7627 15.411L13.6115 15.4025L13.448 15.3968L13.2752 15.3911H13.0932L12.9081 15.3968L12.7137 15.4053L12.5286 15.4223L12.3435 15.4393L12.1615 15.4591L11.9856 15.4818L11.819 15.5072L11.6648 15.5356L11.526 15.5611L11.3995 15.595L11.2946 15.6262L11.2113 15.663L11.1465 15.6941L11.5599 14.4057L11.6895 14.3575L11.819 14.315L11.9579 14.2782L12.0967 14.2527L12.2386 14.2244L12.3898 14.2046L12.541 14.1819L12.6983 14.1706L12.8618 14.1593L13.0284 14.1565L13.2043 14.1508H13.3863H13.5714H13.7627L13.9663 14.1565L14.173 14.1593L14.3334 14.1706L14.5093 14.1989L14.6913 14.2357L14.8764 14.2839L15.0584 14.3462L15.2312 14.4226L15.407 14.5133L15.5705 14.6152L15.7155 14.7313L15.8451 14.8616L15.9593 15.006L16.0487 15.1646L16.1073 15.3373L16.1413 15.5186V15.7225L16.1073 15.9349L15.5181 18.7611Z" fill="white"/>
<path d="M15.5181 18.7611L15.2836 19.9476H13.8151L13.8583 19.7267L13.8861 19.5313L13.9107 19.3812L13.9323 19.2991L13.8521 19.3869L13.7596 19.4718L13.6485 19.5511L13.5251 19.6276L13.3863 19.7012L13.2382 19.7664L13.087 19.8287L12.9297 19.8825L12.7631 19.9306L12.5934 19.9674L12.4237 20.0014L12.2479 20.0212L12.0813 20.0326L11.9116 20.0382L11.7481 20.0212L11.5907 20.0014L11.3871 19.9533L11.1989 19.8995L11.0385 19.8287L10.8904 19.7494L10.7639 19.6644L10.6467 19.5681L10.5542 19.4662L10.4709 19.3586L10.403 19.2453L10.3444 19.1292L10.2981 19.0103L10.2611 18.8942L10.2395 18.7695L10.221 18.6478L10.2086 18.5288V18.4127L10.2271 18.2032L10.2611 18.0049L10.3197 17.818L10.3968 17.6368L10.4894 17.4669L10.5943 17.3111L10.7177 17.1611L10.8565 17.028L11.0015 16.9034L11.165 16.7929L11.3347 16.691L11.5075 16.6032L11.6956 16.5295L11.8869 16.4701L12.0844 16.4219L12.2911 16.3908H12.3003L12.3312 16.3851L12.3713 16.3795L12.4361 16.3738L12.5039 16.3653L12.5872 16.3596L12.6736 16.3483L12.7723 16.337L12.8711 16.3257L12.9729 16.3172L13.0778 16.3115L13.1703 16.3002L13.2629 16.2945L13.3493 16.2888L13.4326 16.2832H13.4973H13.63L13.7688 16.2888L13.8984 16.2945H14.0249L14.1298 16.3002L14.2131 16.3058L14.2717 16.3115H14.2871L14.2995 16.2718L14.3334 16.1756L14.3643 16.0651L14.3766 15.9632L14.3519 15.8442L14.2995 15.7395L14.2285 15.6432L14.136 15.5611L14.0249 15.4931L13.9046 15.4449L13.7627 15.411L13.6115 15.4025L13.448 15.3968L13.2752 15.3911H13.0932L12.9081 15.3968L12.7137 15.4053L12.5286 15.4223L12.3435 15.4393L12.1615 15.4591L11.9856 15.4818L11.819 15.5072L11.6648 15.5356L11.526 15.5611L11.3995 15.595L11.2946 15.6262L11.2113 15.663L11.1465 15.6941L11.5599 14.4057L11.6895 14.3575L11.819 14.315L11.9579 14.2782L12.0967 14.2527L12.2386 14.2244L12.3898 14.2046L12.541 14.1819L12.6983 14.1706L12.8618 14.1593L13.0284 14.1565L13.2043 14.1508H13.3863H13.5714H13.7627L13.9663 14.1565L14.173 14.1593L14.3334 14.1706L14.5093 14.1989L14.6913 14.2357L14.8764 14.2839L15.0584 14.3462L15.2312 14.4226L15.407 14.5133L15.5705 14.6152L15.7155 14.7313L15.8451 14.8616L15.9593 15.006L16.0487 15.1646L16.1073 15.3373L16.1413 15.5186V15.7225L16.1073 15.9349L15.5181 18.7611Z" stroke="white" stroke-width="0.22" stroke-miterlimit="2.61"/>
<path fill-rule="evenodd" clip-rule="evenodd" d="M14.1143 17.365L14.1082 17.3366L14.0835 17.3112L14.0496 17.2942L13.9909 17.2828L13.9262 17.2743L13.8521 17.2687H13.7626H13.6763L13.5837 17.2743L13.485 17.2828L13.3893 17.2942L13.2968 17.3055L13.2104 17.3168L13.1302 17.331L13.0592 17.348L12.9945 17.365L12.9543 17.3735L12.9081 17.3904L12.8433 17.4131L12.7785 17.4386L12.7044 17.4697L12.6273 17.5094L12.5471 17.5462L12.47 17.5887L12.3898 17.6425L12.3126 17.6963L12.2417 17.7586L12.18 17.8237L12.1214 17.8945L12.0813 17.9681L12.0442 18.0531L12.0288 18.1409L12.0226 18.3221L12.0504 18.4666L12.109 18.5713L12.1862 18.6535L12.2725 18.7073L12.3713 18.7384L12.4638 18.7554L12.5564 18.7611L12.7322 18.7554L12.8896 18.7384L13.0407 18.7158L13.1765 18.6846L13.2906 18.6478L13.4017 18.5996L13.5004 18.5515L13.5899 18.492L13.6639 18.4382L13.7349 18.3759L13.7935 18.3165L13.8398 18.2513L13.8799 18.189L13.9138 18.1239L13.9447 18.0644L13.9632 18.005L14.0095 17.852L14.0496 17.6736L14.0835 17.5037L14.1143 17.365Z" fill="#E40520"/>
<path fill-rule="evenodd" clip-rule="evenodd" d="M3.25786 19.9476H1.67212L2.99563 12.9246H5.75063L6.01595 17.0903L7.91946 12.9246H10.7979L9.44659 19.9476H7.86084L8.8635 14.7002H8.79872L6.42935 19.9476H4.63999L4.62765 19.7267L4.58754 19.1462L4.5351 18.3164L4.47648 17.3649L4.41787 16.4078L4.36542 15.5667L4.32531 14.9579L4.31297 14.7002H4.29446H4.26052H4.22659L3.25786 19.9476Z" fill="white"/>
<path d="M3.25786 19.9476H1.67212L2.99563 12.9246H5.75063L6.01595 17.0903L7.91946 12.9246H10.7979L9.44659 19.9476H7.86084L8.8635 14.7002H8.79872L6.42935 19.9476H4.63999L4.62765 19.7267L4.58754 19.1462L4.5351 18.3164L4.47648 17.3649L4.41787 16.4078L4.36542 15.5667L4.32531 14.9579L4.31297 14.7002H4.29446H4.26052H4.22659L3.25786 19.9476Z" stroke="white" stroke-width="0.22" stroke-miterlimit="2.61"/>
<path fill-rule="evenodd" clip-rule="evenodd" d="M44.4348 18.7611L44.1973 19.9476H42.7349L42.7442 19.7267L42.7503 19.5342V19.3897L42.7627 19.3274L42.6886 19.4067L42.5992 19.486L42.4943 19.5625L42.377 19.6361L42.2567 19.7069L42.1148 19.772L41.9698 19.8343L41.8248 19.8881L41.6675 19.9306L41.504 19.9731L41.3404 20.0014L41.1769 20.0212L41.0103 20.0326L40.8468 20.0382L40.6895 20.0212L40.5321 20.0014L40.3224 19.9533L40.1342 19.8995L39.9707 19.8287L39.8195 19.7494L39.693 19.6644L39.5819 19.5681L39.4894 19.4662L39.4061 19.3586L39.3382 19.2453L39.2858 19.1292L39.2364 19.0103L39.2086 18.8942L39.184 18.7695L39.1685 18.6478L39.1562 18.5288V18.4127L39.1685 18.2032L39.2025 18.0049L39.2549 17.818L39.332 17.6368L39.4184 17.4669L39.5295 17.3111L39.6529 17.1611L39.7855 17.028L39.9367 16.9034L40.0941 16.7929L40.2637 16.691L40.4427 16.6032L40.6247 16.5295L40.816 16.4701L41.0103 16.4219L41.2078 16.3908H41.2201L41.2479 16.3851L41.288 16.3795L41.3466 16.3738L41.4237 16.3653L41.504 16.3596L41.5903 16.3483L41.686 16.337L41.7847 16.3257L41.8896 16.3172L41.9883 16.3115L42.087 16.3002L42.1796 16.2945L42.2629 16.2888L42.3431 16.2832H42.4079H42.5467L42.6886 16.2888L42.8213 16.2945H42.9478L43.0588 16.3002L43.1545 16.3058L43.2069 16.3115H43.2285L43.2409 16.2718L43.2594 16.1756L43.2748 16.0651L43.2871 15.9632L43.2625 15.8442L43.2162 15.7395L43.1421 15.6432L43.0527 15.5611L42.9478 15.4931L42.8275 15.4449L42.6979 15.411L42.5591 15.4025L42.3956 15.3968L42.2197 15.3911H42.0408L41.8526 15.3968L41.6613 15.4053L41.4762 15.4223L41.288 15.4393L41.1091 15.4591L40.9332 15.4818L40.7635 15.5072L40.6124 15.5356L40.4735 15.5611L40.3439 15.595L40.2391 15.6262L40.1588 15.663L40.0941 15.6941L40.5013 14.4057L40.6309 14.3575L40.7635 14.315L40.8993 14.2782L41.0381 14.2527L41.1831 14.2244L41.3281 14.2046L41.4793 14.1819L41.6397 14.1706L41.8001 14.1593L41.9698 14.1565L42.1395 14.1508H42.3184H42.5004H42.6886L42.8861 14.1565L43.0835 14.1593L43.247 14.1706L43.4229 14.1989L43.6018 14.2357L43.7869 14.2839L43.9689 14.3462L44.151 14.4226L44.3237 14.5133L44.4873 14.6152L44.6323 14.7313L44.768 14.8616L44.8852 15.006L44.9716 15.1646L45.0364 15.3373L45.0765 15.5186V15.7225L45.0457 15.9349L44.4348 18.7611Z" fill="white"/>
<path fill-rule="evenodd" clip-rule="evenodd" d="M44.1972 19.9844L44.2312 19.9533L44.4687 18.7667L44.4009 18.7554L44.1602 19.9419L44.1972 19.9108V19.9844L44.225 19.9788L44.2312 19.9533L44.1972 19.9844Z" fill="white"/>
<path fill-rule="evenodd" clip-rule="evenodd" d="M42.6979 19.9476L42.7349 19.9844H44.1972V19.9108H42.7349L42.7688 19.9476H42.6979L42.6917 19.9844H42.7349L42.6979 19.9476Z" fill="white"/>
<path fill-rule="evenodd" clip-rule="evenodd" d="M42.7904 19.3473L42.7411 19.3048L42.7164 19.3897L42.7102 19.5342V19.7267L42.6979 19.9476H42.7688L42.7812 19.7267L42.7904 19.5342L42.7873 19.3897V19.3473L42.7349 19.3048L42.7904 19.3473Z" fill="white"/>
<path fill-rule="evenodd" clip-rule="evenodd" d="M40.5259 20.0326L40.6895 20.0552L40.8468 20.0694L41.0103 20.0637L41.1769 20.0552L41.3466 20.0326L41.5101 20.0071L41.6736 19.9646L41.8371 19.9193L41.9821 19.8683L42.1333 19.8032L42.2721 19.7381L42.3955 19.6644L42.5189 19.588L42.6238 19.5143L42.7164 19.4294L42.7904 19.3473L42.7349 19.3048L42.6577 19.3869L42.5775 19.4605L42.4727 19.5342L42.3616 19.6106L42.2382 19.6758L42.0993 19.7381L41.9574 19.8032L41.8124 19.857L41.6613 19.8995L41.4978 19.9419L41.3342 19.9674L41.1769 19.9901L41.0103 20.0014L40.8468 20.0071L40.6895 19.9901L40.5383 19.9674L40.5259 20.0326Z" fill="white"/>
<path fill-rule="evenodd" clip-rule="evenodd" d="M39.1161 18.4128L39.1223 18.5289L39.1315 18.6478L39.15 18.7752L39.1747 18.8998L39.2025 19.0159L39.2487 19.1405L39.3012 19.2623L39.3783 19.3756L39.4585 19.486L39.5511 19.588L39.6683 19.6899L39.8041 19.7749L39.9552 19.8627L40.1218 19.9306L40.3162 19.9844L40.526 20.0326L40.5383 19.9674L40.3285 19.9193L40.1465 19.8683L39.9892 19.7975L39.838 19.7239L39.7146 19.6361L39.6097 19.5455L39.5171 19.4435L39.4369 19.3416L39.3721 19.2312L39.3197 19.1179L39.2734 19.0074L39.2426 18.8885L39.221 18.7667L39.2025 18.6478L39.1901 18.5289L39.1963 18.4128H39.1161Z" fill="white"/>
<path fill-rule="evenodd" clip-rule="evenodd" d="M41.2078 16.3596L41.0042 16.3908L40.8036 16.4389L40.6124 16.4984L40.4273 16.572L40.2452 16.657L40.0694 16.7646L39.912 16.8779L39.7609 17.0053L39.622 17.1384L39.4986 17.2885L39.3845 17.4499L39.295 17.6255L39.221 17.8067L39.1685 17.9993L39.1315 18.2032L39.1161 18.4127H39.1963L39.2025 18.2032L39.2364 18.0106L39.2889 17.8294L39.366 17.6481L39.4524 17.4811L39.5573 17.331L39.6807 17.1809L39.8102 17.0478L39.9614 16.9317L40.1187 16.8184L40.2823 16.7221L40.4612 16.6372L40.637 16.5607L40.8283 16.5041L41.0134 16.4559L41.2078 16.422V16.3596Z" fill="white"/>
<path fill-rule="evenodd" clip-rule="evenodd" d="M42.4079 16.2464H42.3431L42.2629 16.2577L42.1796 16.2634L42.087 16.269L41.9883 16.2775L41.8896 16.2832L41.7847 16.2945L41.686 16.3058L41.5903 16.3172L41.5039 16.3257L41.4237 16.3313L41.3466 16.3427L41.288 16.3483L41.2417 16.354L41.2201 16.3596H41.2078V16.4219H41.2201L41.254 16.4163L41.288 16.4134L41.3466 16.4078L41.4237 16.3965L41.5039 16.3908L41.5903 16.3795L41.686 16.3681L41.7847 16.3596L41.8896 16.3483L41.9883 16.3427L42.087 16.3313L42.1796 16.3257L42.2629 16.32H42.3431H42.4079V16.2464Z" fill="white"/>
<path fill-rule="evenodd" clip-rule="evenodd" d="M43.1945 16.3058L43.2285 16.2775H43.2069L43.1544 16.2719L43.0588 16.269L42.9477 16.2577H42.8212H42.6886L42.5467 16.2464H42.4078V16.32H42.5467H42.6886L42.8212 16.3313H42.9477H43.0588L43.1544 16.337L43.2069 16.3427H43.2285L43.2624 16.3172L43.2285 16.3427L43.2593 16.3483L43.2624 16.3172L43.1945 16.3058Z" fill="white"/>
<path fill-rule="evenodd" clip-rule="evenodd" d="M43.2532 15.9632H43.247L43.2409 16.0651L43.2223 16.1728L43.2069 16.269L43.1946 16.3059L43.2625 16.3172L43.2748 16.2775L43.2933 16.1812L43.3118 16.0651L43.3272 15.9632H43.3211H43.2532Z" fill="white"/>
<path fill-rule="evenodd" clip-rule="evenodd" d="M42.559 15.4336V15.4393L42.6917 15.4449L42.8151 15.4761L42.9323 15.5242L43.031 15.5894L43.1112 15.663L43.1822 15.7536L43.2285 15.8499L43.2532 15.9632H43.321L43.2994 15.8386L43.2532 15.7225L43.1699 15.6205L43.0773 15.5356L42.9662 15.4591L42.8398 15.411L42.704 15.3798L42.559 15.3628V15.3685V15.4336Z" fill="white"/>
<path fill-rule="evenodd" clip-rule="evenodd" d="M40.0601 15.6913L40.1187 15.7225L40.1743 15.6942L40.2514 15.6573L40.3501 15.6262L40.4797 15.595L40.6185 15.5667L40.7697 15.5412L40.9394 15.5129L41.1091 15.4931L41.288 15.4704L41.4762 15.4535L41.6613 15.4393L41.8526 15.428H42.0408H42.2197H42.3955L42.5591 15.4336V15.3685L42.3955 15.3628L42.2197 15.3543H42.0408L41.8526 15.3628L41.6613 15.3742L41.4762 15.3912L41.288 15.4053L41.1091 15.428L40.927 15.4506L40.7573 15.4761L40.6062 15.5016L40.4674 15.5299L40.3378 15.5611L40.2267 15.595L40.1403 15.6319L40.0694 15.6687L40.128 15.6998L40.0601 15.6913Z" fill="white"/>
<path fill-rule="evenodd" clip-rule="evenodd" d="M40.492 14.3745L40.4674 14.4L40.0601 15.6913L40.128 15.6998L40.5383 14.4113L40.5136 14.4396L40.492 14.3745L40.4735 14.3802L40.4674 14.4L40.492 14.3745Z" fill="white"/>
<path fill-rule="evenodd" clip-rule="evenodd" d="M43.0835 14.1281L42.8861 14.1168L42.6886 14.1111H42.5004H42.3184H42.1395L41.9698 14.1225L41.8001 14.1281L41.6397 14.1395L41.4792 14.1508L41.325 14.1706L41.1769 14.1933L41.0319 14.2188L40.8931 14.2471L40.7512 14.2839L40.6185 14.3264L40.492 14.3745L40.5136 14.4396L40.6432 14.3915L40.7758 14.3462L40.9054 14.3094L41.0442 14.2839L41.1892 14.2556L41.3342 14.2357L41.4792 14.2131L41.6397 14.2046L41.8001 14.1933L41.9698 14.1876H42.1395H42.3184H42.5004H42.6886L42.8861 14.1933H43.0835V14.1281Z" fill="white"/>
<path fill-rule="evenodd" clip-rule="evenodd" d="M45.0826 15.9405L45.1104 15.7225V15.5186L45.0703 15.3317L45.0055 15.1561L44.913 14.989L44.7957 14.8389L44.6569 14.7058L44.5119 14.5897L44.3422 14.4878L44.1664 14.3915L43.9813 14.315L43.7992 14.2527L43.608 14.2046L43.4259 14.165L43.247 14.1395L43.0835 14.1281V14.1933L43.247 14.2046L43.4167 14.2301L43.5956 14.2669L43.7776 14.315L43.9566 14.3802L44.1324 14.4538L44.3083 14.5416L44.4625 14.6407L44.6106 14.7596L44.7371 14.8814L44.8544 15.0202L44.9376 15.1759L44.9993 15.343L45.0425 15.5186V15.7225L45.0117 15.932L45.0826 15.9405Z" fill="white"/>
<path fill-rule="evenodd" clip-rule="evenodd" d="M44.4688 18.7667L45.0827 15.9405L45.0117 15.932L44.4009 18.7554L44.4688 18.7667Z" fill="white"/>
<path fill-rule="evenodd" clip-rule="evenodd" d="M43.0249 17.3649L43.0126 17.331L42.991 17.3055L42.9478 17.2885L42.8923 17.2743L42.8275 17.2687L42.7504 17.263H42.664L42.5776 17.2687L42.482 17.2772L42.3894 17.2885L42.2968 17.2998L42.2105 17.3111L42.121 17.3253L42.047 17.3366L41.9698 17.3536L41.9112 17.3649L41.8711 17.3706L41.8248 17.3848L41.7662 17.4018L41.7014 17.4216L41.6274 17.4556L41.5564 17.4867L41.4762 17.5235L41.3991 17.5717L41.325 17.6198L41.2479 17.6793L41.1831 17.7388L41.1183 17.8067L41.069 17.8832L41.0258 17.9625L40.9918 18.0474L40.9733 18.1409L40.9672 18.3221L40.998 18.4665L41.0443 18.5713L41.1152 18.6534L41.2016 18.7072L41.3004 18.7384L41.3991 18.7554L41.4978 18.7611L41.6736 18.7554L41.8372 18.7384L41.9883 18.7129L42.121 18.6733L42.2506 18.6308L42.3616 18.5826L42.4665 18.5288L42.5591 18.4665L42.6393 18.4071L42.7102 18.3363L42.775 18.274L42.8275 18.2032L42.8676 18.1409L42.8954 18.0757L42.92 18.0106L42.9385 17.9511L42.9601 17.8039L42.991 17.6481L43.0126 17.498L43.0249 17.3649Z" fill="#FAB51D"/>
<path fill-rule="evenodd" clip-rule="evenodd" d="M55.0291 19.2142L55.0383 19.0924L55.0846 18.948L55.1679 18.8177L55.2666 18.7073L55.39 18.6166L55.5288 18.5515L55.68 18.509L55.8435 18.492L56.007 18.509L56.1582 18.5515L56.297 18.6166L56.4204 18.7073L56.5192 18.8177L56.6025 18.948L56.6487 19.0924L56.658 19.2142H56.4852L56.4791 19.1179L56.442 19.0018L56.3865 18.8942L56.3094 18.8035L56.2168 18.7271L56.1058 18.6733L55.9762 18.6365L55.8435 18.6251L55.7109 18.6365L55.5813 18.6733L55.4702 18.7271L55.3777 18.8035L55.3005 18.8942L55.2419 19.0018L55.208 19.1179L55.1957 19.2142H55.0291Z" fill="white"/>
<path fill-rule="evenodd" clip-rule="evenodd" d="M55.5535 19.2142V18.8942H55.8713L55.9422 18.8998L56.007 18.9112L56.0533 18.9253L56.0934 18.948L56.1243 18.9791L56.1459 19.0103L56.1582 19.0499L56.1644 19.0867L56.1582 19.1349L56.1459 19.1717L56.1304 19.2028L56.1181 19.2142H55.8713L55.896 19.2085L55.9361 19.2028L55.9731 19.1943L56.0009 19.183L56.0255 19.166L56.0348 19.149L56.0471 19.1235V19.0867L56.041 19.0584L56.0286 19.0386L56.0132 19.0273L55.9947 19.0159L55.9669 19.0103L55.9361 19.0074H55.9083H55.8713H55.6985V19.2142H55.5535Z" fill="white"/>
<path fill-rule="evenodd" clip-rule="evenodd" d="M55.0291 19.2142L55.0229 19.2453L55.0383 19.4011L55.0846 19.5455L55.1679 19.6758L55.2666 19.7805L55.39 19.8712L55.5288 19.942L55.68 19.9844L55.8435 20.0014L56.007 19.9844L56.1582 19.942L56.297 19.8712L56.4204 19.7805L56.5192 19.6758L56.6025 19.5455L56.6487 19.4011L56.6642 19.2453L56.658 19.2142H56.4852L56.4914 19.2453L56.4791 19.3756L56.442 19.4917L56.3865 19.5936L56.3094 19.6843L56.2168 19.7607L56.1058 19.8202L55.9762 19.857L55.8435 19.8683L55.7109 19.857L55.5813 19.8202L55.4702 19.7607L55.3777 19.6843L55.3005 19.5936L55.2419 19.4917L55.208 19.3756L55.1957 19.2453V19.2142H55.0291Z" fill="white"/>
<path fill-rule="evenodd" clip-rule="evenodd" d="M55.5535 19.2142V19.5398H55.6985V19.2736H55.8435L56.0194 19.5398H56.1335L55.9608 19.2736H56.0009L56.041 19.2623L56.078 19.251L56.1058 19.2312L56.1181 19.2142H55.8713L55.8435 19.2198H55.6985V19.2142H55.5535Z" fill="white"/>
<path d="M55.6985 19.5398H55.5535V18.8913H55.8744L55.9453 18.897L56.0101 18.9083L56.0564 18.9253L56.0965 18.948L56.1243 18.9791L56.149 19.0103L56.1613 19.0471L56.1675 19.0839L56.1613 19.132L56.149 19.1688L56.1304 19.2L56.1058 19.2255L56.078 19.2481L56.0441 19.2595L56.0039 19.2708H55.9638L56.1397 19.537H56.0225L55.8466 19.2708H55.7016V19.537M55.8466 19.217L55.8991 19.2057L55.9392 19.2L55.9731 19.1887L56.0009 19.1773L56.0255 19.1603L56.0379 19.1434L56.0502 19.1179V19.0811L56.0441 19.0556L56.0317 19.0329L56.0132 19.0216L55.9947 19.0103L55.9669 19.0046L55.9392 18.9989H55.7016V19.2113H55.8466M55.0229 19.2453L55.0414 19.0896L55.0877 18.9451L55.1679 18.8177L55.2666 18.7044L55.39 18.6138L55.5288 18.5487L55.68 18.5062L55.8435 18.4892L56.007 18.5062L56.1582 18.5487L56.297 18.6138L56.4204 18.7044L56.5192 18.8177L56.5994 18.9451L56.6456 19.0896L56.6642 19.2453L56.6456 19.4011L56.5994 19.5455L56.5192 19.6729L56.4204 19.7805L56.297 19.8711L56.1582 19.9419L56.007 19.9844L55.8435 20.0014L55.68 19.9844L55.5288 19.9419L55.39 19.8711L55.2666 19.7805L55.1679 19.6729L55.0877 19.5455L55.0414 19.4011L55.0229 19.2453ZM55.8466 19.8598L55.9793 19.8485L56.1058 19.8117L56.2168 19.7522L56.3094 19.6757L56.3865 19.5851L56.4451 19.4832L56.4791 19.3642L56.4914 19.2368L56.4791 19.1094L56.4451 18.9904L56.3865 18.8828L56.3094 18.7922L56.2168 18.7186L56.1058 18.6648L55.9793 18.628L55.8466 18.6166L55.7139 18.628L55.5844 18.6648L55.4733 18.7186L55.3808 18.7922L55.3036 18.8828L55.245 18.9904L55.2111 19.1094L55.1987 19.2368L55.2111 19.3642L55.245 19.4832L55.3036 19.5851L55.3808 19.6757L55.4733 19.7522L55.5844 19.8117L55.7139 19.8485L55.8466 19.8598Z" stroke="white" stroke-width="0.22" stroke-miterlimit="2.61"/>
<path fill-rule="evenodd" clip-rule="evenodd" d="M44.8729 19.9476H46.5141L47.1034 16.9034L47.1281 16.7873L47.162 16.6683L47.1959 16.5522L47.2422 16.4333L47.3008 16.3172L47.3718 16.2039L47.4458 16.0963L47.5415 15.9943L47.6464 15.9037L47.7605 15.8188L47.8963 15.7395L48.0474 15.6743L48.2171 15.6205L48.4022 15.5781L48.6058 15.5469L48.8341 15.5356H48.9143H48.9606H48.9791L49.2414 14.1593L49.0779 14.1706L48.9205 14.1876L48.7755 14.2131L48.6367 14.2528L48.5071 14.2952L48.3868 14.3462L48.2696 14.4057L48.1585 14.4708L48.0536 14.5444L47.9549 14.6209L47.8623 14.7059L47.7667 14.7908L47.6803 14.8814L47.5939 14.9834L47.5045 15.0797L47.4242 15.1873L47.6001 14.2188H45.9619L44.8729 19.9476Z" fill="white"/>
<path d="M44.8729 19.9476H46.5141L47.1034 16.9034L47.1281 16.7873L47.162 16.6683L47.1959 16.5522L47.2422 16.4333L47.3008 16.3172L47.3718 16.2039L47.4458 16.0963L47.5415 15.9943L47.6464 15.9037L47.7605 15.8188L47.8963 15.7395L48.0474 15.6743L48.2171 15.6205L48.4022 15.5781L48.6058 15.5469L48.8341 15.5356H48.9143H48.9606H48.9791L49.2414 14.1593L49.0779 14.1706L48.9205 14.1876L48.7755 14.2131L48.6367 14.2528L48.5071 14.2952L48.3868 14.3462L48.2696 14.4057L48.1585 14.4708L48.0536 14.5444L47.9549 14.6209L47.8623 14.7059L47.7667 14.7908L47.6803 14.8814L47.5939 14.9834L47.5045 15.0797L47.4242 15.1873L47.6001 14.2188H45.9619L44.8729 19.9476Z" stroke="white" stroke-width="0.22" stroke-miterlimit="2.61"/>
<path fill-rule="evenodd" clip-rule="evenodd" d="M29.4443 19.9476H31.0856H31.1164L31.6748 16.9034L31.6995 16.7873L31.7273 16.674L31.755 16.5607L31.7982 16.4559L31.8445 16.3483L31.9031 16.2464L31.971 16.1501L32.0543 16.0595L32.1468 15.9774L32.2517 15.8981L32.3782 15.8358L32.5201 15.7763L32.6836 15.7282L32.8626 15.6857L33.06 15.6574L33.2883 15.6432H33.3068L33.3284 15.646L33.3593 15.6517H33.387L33.4179 15.6574L33.4395 15.663L33.458 15.6687H33.4642L33.4703 15.646L33.4858 15.5837L33.5104 15.4874L33.5382 15.3685L33.5814 15.2297L33.6215 15.0797L33.674 14.9296L33.7264 14.7795L33.7727 14.6804L33.8313 14.5784L33.8899 14.4765L33.9485 14.3859L34.001 14.3037L34.0411 14.2414L34.0688 14.2046L34.0812 14.1876H34.075L34.0503 14.182L34.0226 14.1763L33.9825 14.1706H33.9424L33.8961 14.165L33.8529 14.1593H33.8128L33.6338 14.1706L33.4703 14.1876L33.3192 14.2131L33.1773 14.2471L33.0446 14.2896L32.9212 14.3434L32.8101 14.3972L32.7052 14.4595L32.6065 14.5303L32.514 14.6096L32.4276 14.6889L32.3381 14.7795L32.2517 14.8729L32.1715 14.9749L32.082 15.0797L31.9957 15.1873L32.2054 14.2188H30.5333L29.4443 19.9476Z" fill="white"/>
<path d="M29.4443 19.9476H31.0856H31.1164L31.6748 16.9034L31.6995 16.7873L31.7273 16.674L31.755 16.5607L31.7982 16.4559L31.8445 16.3483L31.9031 16.2464L31.971 16.1501L32.0543 16.0595L32.1468 15.9774L32.2517 15.8981L32.3782 15.8358L32.5201 15.7763L32.6836 15.7282L32.8626 15.6857L33.06 15.6574L33.2883 15.6432H33.3068L33.3284 15.646L33.3593 15.6517H33.387L33.4179 15.6574L33.4395 15.663L33.458 15.6687H33.4642L33.4703 15.646L33.4858 15.5837L33.5104 15.4874L33.5382 15.3685L33.5814 15.2297L33.6215 15.0797L33.674 14.9296L33.7264 14.7795L33.7727 14.6804L33.8313 14.5784L33.8899 14.4765L33.9485 14.3859L34.001 14.3037L34.0411 14.2414L34.0688 14.2046L34.0812 14.1876H34.075L34.0503 14.182L34.0226 14.1763L33.9825 14.1706H33.9424L33.8961 14.165L33.8529 14.1593H33.8128L33.6338 14.1706L33.4703 14.1876L33.3192 14.2131L33.1773 14.2471L33.0446 14.2896L32.9212 14.3434L32.8101 14.3972L32.7052 14.4595L32.6065 14.5303L32.514 14.6096L32.4276 14.6889L32.3381 14.7795L32.2517 14.8729L32.1715 14.9749L32.082 15.0797L31.9957 15.1873L32.2054 14.2188H30.5333L29.4443 19.9476Z" stroke="white" stroke-width="0.22" stroke-miterlimit="2.61"/>
<path fill-rule="evenodd" clip-rule="evenodd" d="M55.0383 25.5745V25.5519L55.0845 25.4131L55.1678 25.2913L55.2666 25.1837L55.39 25.0988L55.5288 25.0336L55.68 24.9968L55.8435 24.9798L56.007 24.9968L56.1582 25.0336L56.297 25.0988L56.4204 25.1837L56.5191 25.2913L56.6024 25.4131L56.6487 25.5519V25.5745H56.479L56.442 25.4612L56.3865 25.3593L56.3093 25.2687L56.2168 25.195L56.1057 25.1356L55.9761 25.0988L55.8435 25.0874L55.7108 25.0988L55.5813 25.1356L55.4702 25.195L55.3776 25.2687L55.3005 25.3593L55.2419 25.4612L55.208 25.5745H55.0383Z" fill="#FAB51D"/>
<path fill-rule="evenodd" clip-rule="evenodd" d="M55.5535 25.5745V25.3876H55.8713H55.9422L56.007 25.3961L56.0533 25.4074L56.0934 25.4301L56.1243 25.4556L56.1459 25.4867L56.1582 25.5264L56.1644 25.5745H56.0471V25.5462L56.041 25.5207L56.0286 25.498L56.0132 25.4867L55.9947 25.4782L55.9669 25.4726L55.9361 25.4669H55.9083H55.8713H55.6985V25.5745H55.5535Z" fill="#FAB51D"/>
<path fill-rule="evenodd" clip-rule="evenodd" d="M55.0229 25.6906L55.0383 25.5745H55.208V25.5802L55.1957 25.6906H55.0229Z" fill="#FAB51D"/>
<path fill-rule="evenodd" clip-rule="evenodd" d="M55.5535 25.6906V25.5745H55.6985V25.6793H55.8435L55.896 25.6708L55.9361 25.6651L55.9731 25.6538L56.0009 25.6425L56.0255 25.6283L56.0348 25.6113L56.0471 25.583V25.5745H56.1644L56.1582 25.6113L56.1459 25.6425L56.1304 25.6708L56.1058 25.6906H55.5535Z" fill="#FAB51D"/>
<path fill-rule="evenodd" clip-rule="evenodd" d="M56.4914 25.6906L56.4791 25.5802V25.5745H56.6487L56.6642 25.6906H56.4914Z" fill="#FAB51D"/>
<path fill-rule="evenodd" clip-rule="evenodd" d="M55.0229 25.6906V25.7076L55.0383 25.8634L55.0846 26.0078L55.1679 26.1352L55.2666 26.2485L55.39 26.3391L55.5288 26.4014L55.68 26.4467L55.8435 26.4609L56.007 26.4467L56.1582 26.4014L56.297 26.3391L56.4204 26.2485L56.5192 26.1352L56.6025 26.0078L56.6487 25.8634L56.6642 25.7076V25.6906H56.4914V25.7076L56.4791 25.835L56.442 25.954L56.3865 26.0559L56.3094 26.1465L56.2168 26.2202L56.1058 26.2796L55.9762 26.3165L55.8435 26.3278L55.7109 26.3165L55.5813 26.2796L55.4702 26.2202L55.3777 26.1465L55.3005 26.0559L55.2419 25.954L55.208 25.835L55.1957 25.7076V25.6906H55.0229Z" fill="#FAB51D"/>
<path fill-rule="evenodd" clip-rule="evenodd" d="M55.5535 25.6906V26.0021H55.6985V25.7331H55.8435L56.0194 26.0021H56.1335L55.9608 25.7331H56.0009L56.041 25.7246L56.078 25.7133L56.1058 25.6906H55.5535Z" fill="#FAB51D"/>
</g>
<defs>
<clipPath id="clip0_4003_7764">
<rect width="58" height="32" fill="white"/>
</clipPath>
</defs>
</svg>
