<svg width="24" height="24" viewBox="0 0 24 24" fill="none" xmlns="http://www.w3.org/2000/svg">
<rect x="1" y="1" width="22" height="22" rx="11" stroke="white" stroke-opacity="0.4" stroke-width="2"/>
<path d="M10.969 14.0257V13.9018C10.9721 13.3267 11.0248 12.8691 11.1272 12.5291C11.2327 12.1891 11.3817 11.9158 11.5741 11.7092C11.7665 11.4995 12.0008 11.3073 12.277 11.1325C12.4663 11.0118 12.6354 10.8799 12.7843 10.7369C12.9364 10.5907 13.0559 10.4287 13.1427 10.2507C13.2296 10.0696 13.2731 9.86781 13.2731 9.64538C13.2731 9.39434 13.2157 9.17668 13.1009 8.99237C12.986 8.80807 12.8309 8.66508 12.6354 8.56339C12.443 8.46171 12.2273 8.41087 11.9884 8.41087C11.768 8.41087 11.5586 8.46012 11.36 8.55863C11.1645 8.65396 11.0016 8.80013 10.8712 8.99714C10.744 9.19098 10.6726 9.43724 10.6571 9.73594H9C9.01552 9.13219 9.15826 8.62695 9.42824 8.22021C9.70132 7.81347 10.0613 7.50842 10.5081 7.30505C10.9581 7.10168 11.4546 7 11.9977 7C12.5904 7 13.1117 7.10645 13.5617 7.31935C14.0147 7.53225 14.367 7.83572 14.6183 8.22974C14.8728 8.62059 15 9.08452 15 9.62154C15 9.98379 14.9426 10.3079 14.8278 10.5939C14.7161 10.8799 14.5562 11.1341 14.3483 11.3565C14.1404 11.579 13.8937 11.7776 13.6082 11.9523C13.3569 12.1112 13.1505 12.2765 12.9891 12.448C12.8309 12.6196 12.713 12.8214 12.6354 13.0534C12.5609 13.2822 12.5221 13.565 12.519 13.9018V14.0257H10.969ZM11.7789 17C11.4996 17 11.2591 16.8983 11.0574 16.6949C10.8557 16.4916 10.7548 16.2437 10.7548 15.9514C10.7548 15.6654 10.8557 15.4207 11.0574 15.2174C11.2591 15.014 11.4996 14.9123 11.7789 14.9123C12.0551 14.9123 12.294 15.014 12.4957 15.2174C12.7005 15.4207 12.8029 15.6654 12.8029 15.9514C12.8029 16.1452 12.7548 16.3216 12.6587 16.4805C12.5656 16.6393 12.4414 16.7664 12.2863 16.8618C12.1342 16.9539 11.9651 17 11.7789 17Z" fill="white"/>
</svg>
