<svg width="56" height="56" viewBox="0 0 56 56" fill="none" xmlns="http://www.w3.org/2000/svg">
<path d="M48.8827 9.63602C48.206 8.65602 47.3427 7.79268 46.3627 7.11602C44.146 5.50602 41.2527 4.66602 37.776 4.66602H18.2227C17.756 4.66602 17.2893 4.68935 16.846 4.73602C9.19268 5.22602 4.66602 10.196 4.66602 18.2227V37.776C4.66602 41.2527 5.50602 44.146 7.11602 46.3627C7.79268 47.3427 8.65602 48.206 9.63602 48.8827C11.5493 50.2827 13.976 51.0993 16.846 51.286C17.2893 51.3093 17.756 51.3327 18.2227 51.3327H37.776C46.2693 51.3327 51.3327 46.2693 51.3327 37.776V18.2227C51.3327 14.746 50.4927 11.8527 48.8827 9.63602ZM43.7493 20.766C43.7493 21.7227 42.956 22.516 41.9993 22.516C41.0427 22.516 40.2493 21.7227 40.2493 20.766V18.0127C40.2493 17.266 39.6427 16.6593 38.896 16.6593H29.7493V39.3393H33.9027C34.8593 39.3393 35.6527 40.1327 35.6527 41.0893C35.6527 42.046 34.8593 42.8393 33.9027 42.8393H22.096C21.1393 42.8393 20.346 42.046 20.346 41.0893C20.346 40.1327 21.1393 39.3393 22.096 39.3393H26.2493V16.6593H17.1027C16.356 16.6593 15.7493 17.266 15.7493 18.0127V20.766C15.7493 21.7227 14.956 22.516 13.9993 22.516C13.0427 22.516 12.2493 21.7227 12.2493 20.766V18.0127C12.2493 15.3293 14.4193 13.1593 17.1027 13.1593H38.8727C41.556 13.1593 43.726 15.3293 43.726 18.0127V20.766H43.7493Z" fill="white"/>
</svg>
