<svg width="172" height="40" viewBox="0 0 172 40" fill="none" xmlns="http://www.w3.org/2000/svg">
<rect width="172" height="40" rx="20" fill="#343434"/>
<path d="M25.0489 8.92705C25.3483 8.00574 26.6517 8.00574 26.9511 8.92705L28.9187 14.9828C29.0526 15.3948 29.4365 15.6738 29.8697 15.6738H36.2371C37.2058 15.6738 37.6086 16.9134 36.8249 17.4828L31.6736 21.2254C31.3231 21.4801 31.1764 21.9314 31.3103 22.3435L33.2779 28.3992C33.5773 29.3205 32.5228 30.0866 31.7391 29.5172L26.5878 25.7746C26.2373 25.5199 25.7627 25.5199 25.4122 25.7746L20.2609 29.5172C19.4772 30.0866 18.4227 29.3205 18.7221 28.3992L20.6897 22.3435C20.8236 21.9314 20.6769 21.4801 20.3264 21.2254L15.1751 17.4828C14.3914 16.9134 14.7942 15.6738 15.7629 15.6738H22.1303C22.5635 15.6738 22.9474 15.3948 23.0813 14.9828L25.0489 8.92705Z" fill="#FFE030"/>
<path d="M55.0489 8.92705C55.3483 8.00574 56.6517 8.00574 56.9511 8.92705L58.9187 14.9828C59.0526 15.3948 59.4365 15.6738 59.8697 15.6738H66.2371C67.2058 15.6738 67.6086 16.9134 66.8249 17.4828L61.6736 21.2254C61.3231 21.4801 61.1764 21.9314 61.3103 22.3435L63.2779 28.3992C63.5773 29.3205 62.5228 30.0866 61.7391 29.5172L56.5878 25.7746C56.2373 25.5199 55.7627 25.5199 55.4122 25.7746L50.2609 29.5172C49.4772 30.0866 48.4227 29.3205 48.7221 28.3992L50.6897 22.3435C50.8236 21.9314 50.6769 21.4801 50.3264 21.2254L45.1751 17.4828C44.3914 16.9134 44.7942 15.6738 45.7629 15.6738H52.1303C52.5635 15.6738 52.9474 15.3948 53.0813 14.9828L55.0489 8.92705Z" fill="#FFE030"/>
<path d="M85.0489 8.92705C85.3483 8.00574 86.6517 8.00574 86.9511 8.92705L88.9187 14.9828C89.0526 15.3948 89.4365 15.6738 89.8697 15.6738H96.2371C97.2058 15.6738 97.6086 16.9134 96.8249 17.4828L91.6736 21.2254C91.3231 21.4801 91.1764 21.9314 91.3103 22.3435L93.2779 28.3992C93.5773 29.3205 92.5228 30.0866 91.7391 29.5172L86.5878 25.7746C86.2373 25.5199 85.7627 25.5199 85.4122 25.7746L80.2609 29.5172C79.4772 30.0866 78.4227 29.3205 78.7221 28.3992L80.6897 22.3435C80.8236 21.9314 80.6769 21.4801 80.3264 21.2254L75.1751 17.4828C74.3914 16.9134 74.7942 15.6738 75.7629 15.6738H82.1303C82.5635 15.6738 82.9474 15.3948 83.0813 14.9828L85.0489 8.92705Z" fill="#FFE030"/>
<path d="M115.049 8.92705C115.348 8.00574 116.652 8.00574 116.951 8.92705L118.919 14.9828C119.053 15.3948 119.437 15.6738 119.87 15.6738H126.237C127.206 15.6738 127.609 16.9134 126.825 17.4828L121.674 21.2254C121.323 21.4801 121.176 21.9314 121.31 22.3435L123.278 28.3992C123.577 29.3205 122.523 30.0866 121.739 29.5172L116.588 25.7746C116.237 25.5199 115.763 25.5199 115.412 25.7746L110.261 29.5172C109.477 30.0866 108.423 29.3205 108.722 28.3992L110.69 22.3435C110.824 21.9314 110.677 21.4801 110.326 21.2254L105.175 17.4828C104.391 16.9134 104.794 15.6738 105.763 15.6738H112.13C112.563 15.6738 112.947 15.3948 113.081 14.9828L115.049 8.92705Z" fill="#FFE030"/>
<path d="M145.049 8.92705C145.348 8.00574 146.652 8.00574 146.951 8.92705L148.919 14.9828C149.053 15.3948 149.437 15.6738 149.87 15.6738H156.237C157.206 15.6738 157.609 16.9134 156.825 17.4828L151.674 21.2254C151.323 21.4801 151.176 21.9314 151.31 22.3435L153.278 28.3992C153.577 29.3205 152.523 30.0866 151.739 29.5172L146.588 25.7746C146.237 25.5199 145.763 25.5199 145.412 25.7746L140.261 29.5172C139.477 30.0866 138.423 29.3205 138.722 28.3992L140.69 22.3435C140.824 21.9314 140.677 21.4801 140.326 21.2254L135.175 17.4828C134.391 16.9134 134.794 15.6738 135.763 15.6738H142.13C142.563 15.6738 142.947 15.3948 143.081 14.9828L145.049 8.92705Z" fill="#FFE030"/>
</svg>
