<svg width="66" height="20" viewBox="0 0 66 20" fill="none" xmlns="http://www.w3.org/2000/svg">
<g clip-path="url(#clip0_4003_7758)">
<path fill-rule="evenodd" clip-rule="evenodd" d="M18.9237 18.9259L24.722 1.14185H29.8939L24.0956 18.9259H18.9237Z" fill="#005597"/>
<path fill-rule="evenodd" clip-rule="evenodd" d="M16.6119 1.14529L11.9583 8.68427C10.7726 10.6584 10.0827 11.6575 9.74714 12.9031H9.67629C9.75833 11.321 9.51968 9.37815 9.50104 8.28183L8.98646 1.14529H0.275954L0.186462 1.62407C2.42375 1.62407 3.75121 2.66835 4.11663 4.80897L5.81324 18.9294H11.1715L22.0075 1.14876H16.6082L16.6119 1.14529Z" fill="#005597"/>
<path fill-rule="evenodd" clip-rule="evenodd" d="M56.8421 18.9259L56.7004 16.2822H50.2421L48.922 18.9259H43.3065L53.4898 1.17307H60.3844L62.1071 18.9259H56.8458H56.8421ZM56.2492 8.43449C56.1932 7.1196 56.1448 5.33633 56.238 4.25735H56.1634C55.8502 5.14205 54.4966 7.79266 53.9 9.09715L51.9759 12.9967H56.5102L56.2454 8.43796L56.2492 8.43449Z" fill="#005597"/>
<path fill-rule="evenodd" clip-rule="evenodd" d="M35.3267 19.4325C31.6762 19.4325 29.2525 18.3535 27.5186 17.3925L29.9834 13.8918C31.5383 14.7002 32.7576 15.6335 35.5617 15.6335C36.464 15.6335 37.3328 15.4149 37.8288 14.6204C38.5484 13.4651 37.661 12.8406 35.6437 11.7755L34.6444 11.1718C31.6501 9.26715 30.3525 7.4596 31.762 4.29899C32.6644 2.27981 35.0434 0.746338 38.9698 0.746338C41.6769 0.746338 44.2162 1.83573 45.6966 2.90083L42.8627 5.99205C41.4196 4.90613 40.2227 4.35797 38.8542 4.35797C37.7617 4.35797 36.9339 4.75001 36.6467 5.27736C36.1061 6.2696 36.822 6.94613 38.3956 7.85858L39.5813 8.5594C43.2169 10.6931 44.0857 12.9308 43.1722 15.0229C41.6023 18.6241 38.5335 19.429 35.323 19.429L35.3267 19.4325Z" fill="#005597"/>
<path fill-rule="evenodd" clip-rule="evenodd" d="M63.5204 3.89307H63.181V1.96409H63.9678C64.4675 1.96409 64.7248 2.12715 64.7248 2.51919C64.7248 2.8696 64.4936 3.01184 64.1841 3.04654L64.7658 3.89307H64.3817L63.8448 3.06735H63.5241V3.89307H63.5204ZM63.9007 2.79674C64.1543 2.79674 64.3817 2.77246 64.3817 2.4949C64.3817 2.26246 64.1356 2.2347 63.9305 2.2347H63.5204V2.79674H63.9007ZM63.8895 4.63552C62.8119 4.63552 62.0475 3.88613 62.0475 2.89389C62.0475 1.84613 62.8977 1.15225 63.8895 1.15225C64.8814 1.15225 65.7204 1.84613 65.7204 2.89389C65.7204 3.94164 64.8702 4.63552 63.8895 4.63552ZM63.8895 1.45409C63.0804 1.45409 62.4465 2.04389 62.4465 2.89389C62.4465 3.68491 62.9983 4.33368 63.8895 4.33368C64.6912 4.33368 65.3214 3.74735 65.3214 2.89389C65.3214 2.04042 64.6912 1.45409 63.8895 1.45409Z" fill="#005597"/>
</g>
<defs>
<clipPath id="clip0_4003_7758">
<rect width="66" height="19" fill="white" transform="translate(0 0.5)"/>
</clipPath>
</defs>
</svg>
