<svg width="81" height="22" viewBox="0 0 81 22" fill="none" xmlns="http://www.w3.org/2000/svg">
<g clip-path="url(#clip0_4003_3914)">
<path d="M0.601074 0.345234H8.13893C8.82419 0.345234 10.88 0.125234 11.7937 3.20523C12.4789 5.18523 13.3926 8.26523 14.7631 12.8852H15.22C16.5905 8.04523 17.7326 4.74523 18.1894 3.20523C19.1031 0.125234 21.3873 0.345234 22.301 0.345234H29.382V21.4652H22.0726V8.92523H21.6157L17.7326 21.4652H12.2505L8.36735 8.92523H7.68209V21.4652H0.601074M32.3515 0.345234H39.6609V12.8852H40.3462L45.143 2.54523C46.0567 0.565234 48.1124 0.345234 48.1124 0.345234H54.965V21.4652H47.6556V8.92523H47.1988L42.4019 19.2652C41.4883 21.2452 39.2041 21.4652 39.2041 21.4652H32.3515M64.7871 15.0852V21.4652H57.9345V10.4652H80.3197C79.406 13.1052 76.2081 15.0852 72.5534 15.0852" fill="white"/>
<path d="M80.7764 9.1457C81.6901 5.1857 78.949 0.345703 73.0101 0.345703H57.4775C57.9344 4.9657 62.0459 9.1457 66.3859 9.1457" fill="white"/>
</g>
<defs>
<clipPath id="clip0_4003_3914">
<rect width="81" height="22" fill="white"/>
</clipPath>
</defs>
</svg>
