<svg width="32" height="32" viewBox="0 0 32 32" fill="none" xmlns="http://www.w3.org/2000/svg">
<path d="M10.6348 0C12.8047 0 13.8359 0.945312 13.7285 2.83594C13.7285 3.33008 13.6855 3.8457 13.5996 4.38281L11.666 14.7275C11.4941 15.7373 10.9141 16.6074 9.92578 17.3379C8.9375 18.0684 7.89551 18.4336 6.7998 18.4336H4.15723C2.43848 18.4336 1.22461 17.9932 0.515625 17.1123C0.171875 16.6182 0 16.0703 0 15.4688C0 14.8457 0.150391 14.1582 0.451172 13.4062L4.28613 3.70605C4.7373 2.65332 5.40332 1.77246 6.28418 1.06348C7.18652 0.354492 8.21777 0 9.37793 0H10.6348ZM14.3086 13.4062L18.1436 3.70605C18.5947 2.65332 19.2715 1.77246 20.1738 1.06348C21.0762 0.354492 22.0967 0 23.2354 0H24.4922C25.8457 0 26.6943 0.290039 27.0381 0.870117C27.4033 1.4502 27.5859 2.05176 27.5859 2.6748C27.5859 3.27637 27.543 3.8457 27.457 4.38281L25.5234 14.7275C25.3516 15.7373 24.7715 16.6074 23.7832 17.3379C22.7949 18.0684 21.7529 18.4336 20.6572 18.4336H18.0146C16.2959 18.4336 15.082 17.9932 14.373 17.1123C14.0293 16.6182 13.8574 16.0703 13.8574 15.4688C13.8574 14.8457 14.0078 14.1582 14.3086 13.4062Z" fill="#9BE931"/>
</svg>
