<svg width="52" height="52" viewBox="0 0 52 52" fill="none" xmlns="http://www.w3.org/2000/svg">
<path d="M33 27.6729C33 30.2124 26.0604 32.271 17.5 32.271C8.93959 32.271 2 30.2124 2 27.6729V38.4019C2 40.9413 8.93959 43 17.5 43C26.0604 43 33 40.9413 33 38.4019V27.6729Z" fill="#A7DEFA"/>
<path d="M17.5 32.271C26.0604 32.271 33 30.2124 33 27.6729V17.3271C33 19.8666 26.0604 21.9252 17.5 21.9252C8.93959 21.9252 2 19.8666 2 17.3271V27.6729C2 30.2124 8.93959 32.271 17.5 32.271Z" fill="#A7DEFA"/>
<path d="M17.5 21.9252C26.0604 21.9252 33 19.8666 33 17.3271V6.59813C33 9.13761 26.0604 11.1963 17.5 11.1963C8.93959 11.1963 2 9.13761 2 6.59813V17.3271C2 19.8666 8.93959 21.9252 17.5 21.9252Z" fill="#A7DEFA"/>
<path d="M17.5 11.1963C26.0604 11.1963 33 9.13761 33 6.59813C33 4.05865 26.0604 2 17.5 2C8.93959 2 2 4.05865 2 6.59813C2 9.13761 8.93959 11.1963 17.5 11.1963Z" fill="#A7DEFA"/>
<path d="M33 27.6729C33 30.2124 26.0604 32.271 17.5 32.271C8.93959 32.271 2 30.2124 2 27.6729M33 27.6729V38.4019M33 27.6729V17.3271M2 27.6729V38.4019M2 27.6729V17.3271M33 38.4019C33 40.9413 26.0604 43 17.5 43C8.93959 43 2 40.9413 2 38.4019M33 38.4019V6.59813M2 38.4019V6.59813M33 17.3271C33 19.8666 26.0604 21.9252 17.5 21.9252C8.93959 21.9252 2 19.8666 2 17.3271M33 17.3271V6.59813M2 17.3271V6.59813M33 6.59813C33 9.13761 26.0604 11.1963 17.5 11.1963C8.93959 11.1963 2 9.13761 2 6.59813M33 6.59813C33 4.05865 26.0604 2 17.5 2C8.93959 2 2 4.05865 2 6.59813" stroke="#111111" stroke-width="3"/>
<path d="M50 23.7089C50 26.3095 43.0604 28.4177 34.5 28.4177C25.9396 28.4177 19 26.3095 19 23.7089C19 21.1082 25.9396 19 34.5 19C43.0604 19 50 21.1082 50 23.7089Z" fill="#A7DEFA"/>
<path d="M34.5 39.4051C43.0604 39.4051 50 37.2968 50 34.6962V23.7089C50 26.3095 43.0604 28.4177 34.5 28.4177C25.9396 28.4177 19 26.3095 19 23.7089V34.6962C19 37.2968 25.9396 39.4051 34.5 39.4051Z" fill="#A7DEFA"/>
<path d="M34.5 50C43.0604 50 50 47.8918 50 45.2911V34.6962C50 37.2968 43.0604 39.4051 34.5 39.4051C25.9396 39.4051 19 37.2968 19 34.6962V45.2911C19 47.8918 25.9396 50 34.5 50Z" fill="#A7DEFA"/>
<path d="M50 45.2911C50 47.8918 43.0604 50 34.5 50C25.9396 50 19 47.8918 19 45.2911V34.6962M50 45.2911V23.7089M50 45.2911V34.6962M50 34.6962C50 37.2968 43.0604 39.4051 34.5 39.4051C25.9396 39.4051 19 37.2968 19 34.6962M50 34.6962V23.7089M19 34.6962V23.7089M50 23.7089C50 26.3095 43.0604 28.4177 34.5 28.4177C25.9396 28.4177 19 26.3095 19 23.7089M50 23.7089C50 21.1082 43.0604 19 34.5 19C25.9396 19 19 21.1082 19 23.7089" stroke="#111111" stroke-width="3"/>
</svg>
