<svg width="240" height="120" viewBox="0 0 240 120" fill="none" xmlns="http://www.w3.org/2000/svg">
<rect x="1" y="1" width="238" height="118" rx="23" stroke="#4EBDF5" stroke-width="2"/>
<g clip-path="url(#clip0_2129_4647)">
<path d="M50.9991 44.8191C56.9549 42.5776 62.8879 40.2775 68.8277 38C71.914 41.9208 75.0504 45.8032 78.1503 49.7127C78.1275 49.8549 78.0864 50.1371 78.0636 50.2793C75.0413 46.8415 71.8843 43.5189 68.8528 40.0879C68.3647 40.1805 67.8834 40.2933 67.4112 40.4468C62.9381 41.9095 58.4216 43.2345 53.9371 44.6565C52.9472 44.9703 51.9709 45.3382 50.9467 45.5369C50.9649 45.2976 50.9809 45.0583 50.9991 44.8191ZM58.8619 44.4105C62.1967 43.2706 65.5248 42.1081 68.8756 41.0111C70.21 42.5438 71.6836 43.95 73.075 45.4308C74.7242 47.214 76.4258 48.952 78.1184 50.6969C78.1184 51.0896 78.1092 51.4846 78.1001 51.8774C75.0002 49.013 71.8843 46.1666 68.8095 43.2751C64.4983 44.345 60.2145 45.5211 55.9034 46.5887C54.2747 47.0221 52.6278 47.3855 51.0128 47.8708C51.0037 47.6293 50.9923 47.3878 50.9832 47.1463C53.595 46.196 56.2455 45.3518 58.8619 44.4105ZM191.306 44.2322C194.136 44.1938 196.969 44.2254 199.802 44.2141C199.748 45.1193 199.871 46.3675 198.885 46.8348C197.925 47.0605 196.922 46.977 195.943 46.9973C194.718 46.9702 193.479 47.0831 192.268 46.8686C191.208 46.4871 191.322 45.1351 191.306 44.2322ZM66.4075 45.0516C67.2196 44.801 68.0362 44.5595 68.8619 44.3631C71.9413 47.0537 75.0413 49.7195 78.1321 52.3943C78.1252 52.6674 78.107 53.2137 78.0978 53.4868C74.9751 51.1664 71.8866 48.7985 68.7433 46.5007C64.0877 47.4758 59.4276 48.4396 54.7765 49.4396C54.0877 49.654 53.4102 49.3516 52.767 49.1439C57.2766 47.6654 61.8706 46.4488 66.4075 45.0516ZM64.5188 48.6451C65.9354 48.2478 67.3587 47.8821 68.7593 47.442C71.898 49.5818 74.9911 51.7848 78.1229 53.936C78.1161 54.3287 78.1115 54.7215 78.107 55.1142C75.2351 53.4258 72.3519 51.7578 69.4778 50.0761C69.1539 49.9226 68.8277 49.636 68.4445 49.7375C64.731 50.3267 61.0152 50.9226 57.2994 51.5027C57.037 51.286 56.7724 51.0716 56.5101 50.8549C59.1835 50.1326 61.8569 49.408 64.5188 48.6451ZM89.1677 51.1438C89.9159 50.1596 91.1705 49.645 92.3977 49.6608C94.7106 49.6608 97.0213 49.6608 99.3343 49.6676C99.3297 55.7553 99.3343 61.8453 99.3297 67.933C100.009 67.9985 100.753 68.0594 101.289 68.5267C102.085 69.1542 102.325 70.2083 102.35 71.1653C96.7065 71.1766 91.0587 71.2037 85.4154 71.1518C85.5363 70.3234 85.6298 69.416 86.232 68.7704C86.7726 68.1565 87.6257 67.9962 88.4058 67.9262C88.4058 63.238 88.4104 58.5475 88.4013 53.857C88.3899 52.9089 88.5541 51.9045 89.1677 51.1438ZM91.8935 53.1414C91.4738 53.9924 91.4396 54.9562 91.4396 55.8862C91.4465 59.9154 91.4373 63.9445 91.4465 67.9736C93.0614 67.9759 94.6764 67.9736 96.2914 67.9759C96.2982 62.9468 96.2914 57.92 96.2959 52.8931C94.827 52.9563 93.3215 52.7058 91.8935 53.1414ZM119.373 49.6631C120.386 49.6608 121.401 49.6631 122.414 49.6631C122.409 52.8209 122.416 55.9765 122.409 59.1321C124.001 59.1321 125.596 59.1321 127.19 59.1321C127.174 55.9765 127.19 52.8232 127.181 49.6676C128.221 49.6608 129.261 49.6608 130.302 49.6721C130.302 56.8342 130.292 63.9987 130.306 71.1631C129.264 71.1857 128.221 71.1789 127.179 71.1699C127.193 68.2761 127.174 65.3801 127.19 62.4841C125.596 62.475 124.004 62.4773 122.409 62.4818C122.418 65.3801 122.4 68.2761 122.421 71.1721C121.403 71.1789 120.384 71.1811 119.366 71.1744C119.385 64.0032 119.371 56.8342 119.373 49.6631ZM147.186 49.6608C150.822 49.6653 154.46 49.6608 158.096 49.6631C158.105 50.7398 158.105 51.8164 158.103 52.8931C156.784 52.8931 155.464 52.8931 154.145 52.8931C154.157 58.9854 154.138 65.0776 154.154 71.1721C153.137 71.1766 152.12 71.1789 151.105 71.1699C151.127 65.0754 151.105 58.9831 151.116 52.8909C149.802 52.8909 148.491 52.8909 147.179 52.8909C147.188 51.8142 147.19 50.7352 147.186 49.6585V49.6608ZM190.085 49.6563C191.091 49.6653 192.099 49.6608 193.108 49.6653C193.108 54.9698 193.101 60.2743 193.112 65.5787C193.158 66.4162 193.089 67.6441 194.109 67.9398C195.375 68.0323 196.65 67.9443 197.923 67.9781C197.937 61.8769 197.93 55.7756 197.923 49.6766C198.947 49.654 199.974 49.6631 200.998 49.6631C200.989 56.8365 200.998 64.01 200.993 71.1834C198.541 71.1676 196.089 71.1834 193.639 71.1789C191.746 71.1992 190.083 69.504 190.088 67.6441C190.072 61.6489 190.083 55.6515 190.083 49.6563H190.085ZM106.583 49.8436C107.608 49.5886 108.682 49.7624 109.727 49.715C111.059 49.7353 112.539 49.5163 113.691 50.3447C114.82 51.0309 115.331 52.3695 115.315 53.638C115.32 58.1547 115.315 62.6714 115.315 67.1881C115.347 68.5063 114.82 69.9284 113.618 70.6123C112.414 71.4633 110.876 71.1067 109.501 71.1766C108.299 71.1112 107.001 71.4046 105.888 70.8132C104.679 70.2444 103.851 68.9758 103.862 67.6441C103.862 62.8249 103.858 58.0035 103.862 53.1843C103.867 51.6133 105.053 50.2161 106.579 49.8436H106.583ZM107.361 53.1008C107.085 53.6132 106.862 54.1685 106.9 54.7621C106.907 58.6062 106.891 62.4502 106.907 66.292C106.921 66.9443 107.133 67.7953 107.888 67.9398C109.038 68.0007 110.201 68.021 111.348 67.9172C112.142 67.6824 112.188 66.7615 112.249 66.0843C112.3 64.4953 112.245 62.9039 112.272 61.3148C112.192 58.8793 112.382 56.4325 112.138 54.0037C112.06 53.7035 111.932 53.4191 111.823 53.1324C110.372 52.76 108.823 52.8029 107.361 53.1008ZM134.626 51.8661C135.176 50.5479 136.6 49.7217 138.016 49.715C139.227 49.715 140.439 49.6992 141.652 49.7217C142.989 49.7691 144.232 50.6179 144.825 51.7916C145.338 52.9044 145.179 54.1504 145.206 55.3355C144.179 55.3355 143.153 55.3355 142.126 55.3422C142.053 54.5296 142.234 53.2656 141.203 52.9947C140.069 52.7893 138.867 52.8322 137.754 53.1437C137.587 53.5906 137.384 54.0443 137.398 54.5319C137.398 58.2224 137.407 61.9153 137.393 65.6058C137.423 66.3101 137.286 67.1655 137.854 67.7095C138.438 68.1023 139.175 67.9465 139.839 67.9849C140.452 67.942 141.182 68.1068 141.677 67.6441C142.206 67.082 142.056 66.2469 142.104 65.5449C143.135 65.5516 144.168 65.5494 145.201 65.5471C145.174 66.6216 145.325 67.7389 144.96 68.7749C144.474 70.2173 142.959 71.2647 141.422 71.1811C140.133 71.1676 138.844 71.2015 137.558 71.1653C135.76 71.0209 134.3 69.3957 134.298 67.6192C134.261 63.2606 134.298 58.9019 134.28 54.5409C134.275 53.6425 134.248 52.7058 134.626 51.8661ZM161.082 49.7172C163.425 49.7127 165.765 49.7172 168.107 49.7105C169.567 49.6676 171.077 50.5095 171.641 51.8706C172.031 52.7058 171.921 53.6493 171.942 54.5409C171.919 56.1165 171.976 57.692 171.912 59.2675C171.791 61.044 170.117 62.4638 168.349 62.4976C166.935 62.5089 165.521 62.4908 164.107 62.4999C164.125 65.3891 164.102 68.2806 164.12 71.1699C163.105 71.1811 162.09 71.1811 161.075 71.1699C161.096 64.019 161.082 56.8681 161.082 49.7172ZM164.111 59.2224C165.523 59.2021 166.937 59.2675 168.349 59.1614C169.216 58.0261 168.799 56.5386 168.899 55.2248C168.904 54.4213 168.942 53.1753 167.92 52.9744C166.661 52.7916 165.377 52.9405 164.109 52.8909C164.118 55.0014 164.113 57.1119 164.109 59.2224H164.111ZM177.099 50.1348C178.254 49.496 179.611 49.7691 180.87 49.715C182.07 49.7669 183.354 49.5186 184.472 50.0739C185.692 50.6021 186.55 51.8638 186.529 53.1911C186.541 58.0103 186.534 62.8317 186.531 67.6509C186.604 69.5424 184.841 71.2331 182.95 71.1789C181.433 71.1676 179.914 71.1992 178.4 71.1631C176.595 71.0367 175.16 69.4002 175.106 67.6418C175.081 63.0484 175.11 58.4549 175.092 53.8615C175.067 53.2408 175.206 52.6358 175.329 52.0331C175.747 51.2679 176.271 50.505 177.099 50.1348ZM178.634 53.2295C178.167 53.6877 178.21 54.3942 178.192 54.9946C178.192 58.2315 178.192 61.4683 178.192 64.7052C178.206 65.7119 178.073 66.7705 178.55 67.7028C179.428 68.0978 180.405 67.9556 181.34 67.9827C181.921 67.9556 182.597 68.0842 183.073 67.6644C183.641 66.9601 183.527 66.0031 183.546 65.1611C183.536 61.7708 183.546 58.3827 183.546 54.9924C183.527 54.3558 183.532 53.5681 182.955 53.1505C182.341 52.7713 181.582 52.927 180.9 52.8864C180.142 52.9247 179.287 52.7509 178.637 53.2295H178.634ZM44.6214 51.0016C45.584 50.8504 46.5694 50.8436 47.5206 51.0919C46.5489 51.2995 45.5817 51.5275 44.6237 51.7826C44.6214 51.523 44.6214 51.2612 44.6214 51.0016ZM64.3341 51.8638C65.8418 51.5027 67.3245 50.979 68.8551 50.7533C71.9733 52.2995 75.0367 53.9631 78.1298 55.5612C78.1207 55.9517 78.1115 56.3399 78.1047 56.7304C74.9888 55.4099 71.8364 54.1775 68.6931 52.9225C65.6913 53.3672 62.6598 53.6064 59.6511 53.9969C59.4732 53.7283 59.293 53.4642 59.0991 53.2069C60.8601 52.8277 62.5845 52.295 64.3341 51.8638ZM44.6784 52.5072C46.1155 52.0602 47.5867 51.7216 49.0352 51.3086C51.0744 51.8954 53.1479 52.365 55.1689 53.0105C55.8372 53.1301 56.4919 53.3107 57.1351 53.5297C56.8979 53.5365 56.428 53.5522 56.1931 53.559C56.2501 53.6448 56.3641 53.8163 56.4212 53.9021C56.7337 53.9292 57.0439 53.9789 57.3518 54.0466C57.7487 54.419 57.9928 54.9179 58.2916 55.3648C56.5786 55.0781 54.8838 54.6425 53.157 54.4597C50.2852 54.7215 47.427 55.1549 44.5507 55.3851C44.5849 55.2271 44.6533 54.9134 44.6852 54.7554C46.964 54.0556 49.2724 53.4168 51.5808 52.8187C53.027 53.0083 54.4458 53.4146 55.8669 53.7486C55.9992 53.6245 56.1338 53.5003 56.2661 53.3762C54.3431 53.2633 52.5388 52.453 50.6365 52.2182C48.6086 52.5094 46.6013 52.9338 44.5644 53.164C44.5917 52.9992 44.6487 52.6719 44.6784 52.5072ZM68.0248 54.112C68.3806 54.0534 68.7616 53.9021 69.1174 54.0443C72.1329 55.051 75.1188 56.1413 78.1229 57.1819C78.1184 57.5588 78.1138 57.9358 78.1092 58.315C75.4997 57.6852 72.8743 57.1164 70.2648 56.4821C69.7401 56.3602 69.2155 56.2045 68.6726 56.1909C66.4463 56.1909 64.2406 56.5363 62.012 56.5295C61.7725 56.586 61.5352 56.6401 61.2957 56.6943C61.1224 56.4099 60.9513 56.1255 60.7825 55.8388C63.1867 55.2271 65.6115 54.6921 68.0248 54.112ZM44.5917 56.9087C47.6848 56.3015 50.787 55.7305 53.8892 55.1774C55.3924 55.3377 56.8774 55.6695 58.376 55.884C58.9029 56.1887 59.0261 56.8613 59.2839 57.3692C57.475 57.218 55.6776 56.7756 53.8527 56.9494C50.7825 57.1728 47.7076 57.3512 44.6351 57.5543C44.6214 57.3399 44.6077 57.1232 44.5917 56.9087ZM67.2743 57.5069C67.9518 57.3828 68.6384 57.0983 69.3364 57.2631C72.2584 57.7755 75.1872 58.2518 78.1115 58.7619C78.1138 59.1389 78.1184 59.5181 78.1207 59.8973C76.9436 59.8454 75.7666 59.8341 74.5987 59.6806C73.1571 59.5903 71.7087 59.6242 70.2762 59.4278C67.6644 59.3082 65.048 59.4075 62.4363 59.4662C62.3382 59.2743 62.1443 58.8906 62.0462 58.6987C63.7661 58.2066 65.5362 57.92 67.2743 57.5069ZM44.6602 59.0373C47.8741 58.6807 51.0744 58.227 54.2838 57.8342C56.0494 57.5317 57.8286 57.8929 59.5918 58.0283C59.7834 58.5565 59.9773 59.0847 60.178 59.6106C55.9353 59.5474 51.6949 59.6197 47.4521 59.6716C46.4964 59.807 45.5315 59.7844 44.5758 59.649C44.6031 59.4436 44.6305 59.2404 44.6602 59.0373ZM69.09 60.3781C72.0987 60.342 75.1097 60.36 78.1207 60.3375C78.1184 60.7212 78.1161 61.1072 78.1161 61.4909C75.1051 61.8295 72.0987 62.2132 69.0878 62.5428C67.1033 62.545 65.1119 62.5315 63.132 62.369C63.1092 62.1635 63.0681 61.7527 63.0453 61.5473C65.0663 61.1884 67.0668 60.7099 69.09 60.3781ZM56.5443 60.3781C57.8172 60.3284 59.09 60.3803 60.3651 60.3375C60.5863 60.904 60.7278 61.4954 60.8464 62.0913C58.7433 62.2764 56.6356 62.369 54.5302 62.2019C51.469 62.0958 48.4056 62.0213 45.3467 61.9198C45.2555 61.7527 45.0707 61.4164 44.9795 61.2494C48.8322 60.9379 52.6985 60.7505 56.5443 60.3781ZM40.3604 60.7212C40.8805 60.7189 41.4028 60.6828 41.9206 60.746C42.2012 61.0372 42.4247 61.3758 42.6665 61.6963C41.7838 61.825 40.8919 61.8611 40 61.8385C40.1209 61.4661 40.2441 61.0959 40.3604 60.7212ZM63.5745 64.4569C68.4901 64.1296 73.2735 62.8859 78.1092 62.0304C78.1138 62.4028 78.1161 62.7753 78.1207 63.1477C75.2055 64.0009 72.2903 64.8564 69.3729 65.6984C69.0718 65.7774 68.7616 65.8451 68.4491 65.8135C66.825 65.7096 65.21 65.5042 63.5859 65.4072C63.5791 65.0889 63.5745 64.7729 63.5745 64.4569ZM41.0219 62.3735C41.6606 62.3419 42.3016 62.3058 42.9425 62.2832C43.2596 62.8023 43.5561 63.335 43.823 63.8813C42.6779 63.9806 41.5306 64.1002 40.3878 63.931C40.5954 63.4095 40.8098 62.8926 41.0219 62.3735ZM51.1086 63.3238C54.3979 63.2019 57.7054 63.3418 60.9696 62.8407C61.0676 63.4321 61.1589 64.0235 61.2547 64.6149C59.9317 64.8632 58.5973 65.2492 57.2355 65.0844C54.5051 64.8519 51.7679 64.6555 49.0375 64.414C48.2756 64.3395 47.4932 64.3801 46.7473 64.177C46.4211 64.116 46.4211 63.7052 46.2592 63.4818C47.8741 63.4005 49.5028 63.5292 51.1086 63.3238ZM69.0832 66.7502C72.0919 65.7051 75.1097 64.6758 78.1115 63.6059C78.1161 63.9896 78.1184 64.3756 78.1184 64.7616C75.2215 66.1137 72.3177 67.459 69.4276 68.8269C69.122 68.9691 68.8003 69.1338 68.4536 69.0526C66.8637 68.8494 65.2807 68.6192 63.6908 68.4183C63.6977 68.1316 63.7068 67.845 63.7136 67.5583C65.4928 67.2197 67.3245 67.1859 69.0832 66.7502ZM43.0155 64.7503C43.4398 64.6939 43.8664 64.6533 44.2929 64.6171C44.5644 65.1205 44.8449 65.6171 45.1232 66.1159C43.5402 66.5854 41.9138 66.301 40.3216 66.0663C41.1953 65.5877 41.9754 64.818 43.0155 64.7503ZM69.3843 69.899C72.304 68.3596 75.2101 66.7931 78.1184 65.2379C78.0294 65.6622 78.3465 66.3123 77.8378 66.5448C74.8633 68.5041 71.8204 70.3595 68.8597 72.3368C67.0052 72.0276 65.1598 71.6822 63.3122 71.3346C63.3281 71.1225 63.3601 70.7004 63.376 70.4882C65.0617 70.4408 66.7429 70.3121 68.4263 70.2218C68.7753 70.2286 69.0832 70.0503 69.3843 69.899ZM47.6346 65.967C51.1406 66.0144 54.6465 66.2062 58.1525 66.2423C59.2565 66.1363 60.3195 65.7886 61.4144 65.6261C61.4029 66.1588 61.371 66.6893 61.3186 67.2175C59.9499 67.4274 58.652 68.2761 57.2355 67.9037C54.2017 67.5448 51.1816 67.0324 48.1365 66.7931C47.9905 66.5042 47.8194 66.2311 47.6346 65.967ZM40.2965 68.1452C42.0324 67.6892 43.6884 66.9263 45.4996 66.7841C45.8052 67.3461 46.1223 67.9037 46.4645 68.4476C45.6091 68.6982 44.7172 69.0571 43.8139 68.8404C42.6392 68.6192 41.4439 68.4883 40.2965 68.1452ZM68.7296 73.3142C71.8661 71.1631 74.9888 68.9939 78.1001 66.8089C78.1115 67.1926 78.1229 67.5786 78.1366 67.9623C75.4655 70.1451 72.7648 72.2894 70.0754 74.4519C69.6557 74.7837 69.2611 75.1606 68.7889 75.4202C67.5846 75.2487 66.4258 74.8356 65.2168 74.6663L65.0549 74.5783C64.2041 74.418 63.3624 74.2216 62.5229 74.0072C62.637 73.7431 62.7556 73.4813 62.8788 73.2239C64.8313 73.181 66.7793 73.3323 68.7296 73.3142ZM57.2606 68.9713C58.6794 69.1 59.9956 68.4431 61.2957 67.9759C61.3049 68.4951 61.2889 69.0142 61.2752 69.5334C60.1507 69.9622 59.033 70.4024 57.9084 70.8268C55.1187 70.2783 52.3085 69.8539 49.5142 69.337C49.4161 69.1451 49.2177 68.7591 49.1196 68.5673C51.834 68.6914 54.5462 68.8472 57.2606 68.9713ZM70.267 75.2983C72.8788 73.0117 75.4815 70.7207 78.1092 68.4522C78.1138 68.8314 78.1184 69.2106 78.1229 69.5921C74.9934 72.6641 71.9185 75.7904 68.7593 78.8331C67.8925 78.5284 67.0075 78.2824 66.1201 78.0521C64.5576 77.5871 62.9791 77.1808 61.4098 76.7362C61.4988 76.5556 61.6767 76.1967 61.7656 76.0161C64.0763 76.1741 66.3802 76.4337 68.6909 76.5759C69.293 76.2576 69.7493 75.7294 70.267 75.2983ZM45.8577 69.4566C46.1953 69.407 46.5511 69.1993 46.891 69.3122C47.24 69.8042 47.5092 70.3482 47.8331 70.8561C46.9686 71.1428 46.0744 71.6032 45.1415 71.3459C43.5356 70.9915 41.9503 70.5424 40.3171 70.3257C42.1236 69.8042 44.0511 69.9848 45.8577 69.4566ZM68.7684 79.9121C71.8683 76.6301 75.0184 73.391 78.1001 70.0886C78.1115 70.4769 78.1184 70.8674 78.1229 71.2556C74.966 74.8062 71.9368 78.4697 68.757 82C65.8304 80.9797 62.8491 80.1242 59.8929 79.1898C60.1301 78.8918 60.3719 78.5961 60.6183 78.3027C63.335 78.8376 66.0517 79.3703 68.7684 79.9121ZM57.6712 71.8019C58.8687 71.4001 59.9887 70.8019 61.1771 70.3685C60.9946 70.8471 61.1726 71.6258 60.5772 71.8538C59.5599 72.3594 58.5152 72.8176 57.4796 73.2849C57.1534 73.4925 56.7724 73.3255 56.4303 73.2736C54.6397 72.8492 52.8331 72.4881 51.0471 72.0502C50.9444 71.8583 50.7391 71.4746 50.6365 71.2805C52.9882 71.3391 55.324 71.7093 57.6712 71.8019ZM45.8463 72.3436C46.7176 72.3775 47.4955 71.9283 48.3326 71.759C48.6383 72.3504 48.9645 72.9305 49.2952 73.5106C48.5995 73.7386 47.9517 74.1562 47.2195 74.2442C44.8974 73.6212 42.5639 73.0298 40.2509 72.3707C42.1145 72.2962 43.9804 72.3594 45.8463 72.3436ZM56.7793 74.3187C58.1365 73.7273 59.4276 72.9937 60.7825 72.4C60.5521 72.9147 60.5179 73.6686 59.8655 73.8424C58.5904 74.3977 57.3678 75.0681 56.0904 75.6234C55.0252 75.585 53.9827 75.2283 52.9243 75.0816C52.459 74.7679 52.329 74.1697 52.0735 73.7025C53.6543 73.8153 55.2008 74.2239 56.7793 74.3187ZM40.406 74.2352C40.5269 74.2938 40.771 74.4135 40.8919 74.4744C42.183 74.4902 43.4535 74.7272 44.7423 74.7701C45.7915 74.8266 46.8408 75.0952 47.8947 74.9552C48.5083 74.7453 49.0854 74.4496 49.683 74.2013C50.0799 74.9056 50.4722 75.6121 50.8554 76.3231C50.1939 76.6436 49.5621 77.0477 48.8504 77.2486C46.3139 76.4901 43.8162 75.5963 41.2888 74.804C40.9329 74.7205 40.6775 74.4541 40.406 74.2352ZM56.1566 76.4766C57.5206 75.7249 58.8642 74.9349 60.2419 74.2081C60.1324 75.0681 59.2793 75.3683 58.6315 75.7588C57.3153 76.4992 56.0402 77.3118 54.6967 78.007C54.2359 77.4359 53.7774 76.8648 53.3281 76.2847C54.2565 76.3705 55.2898 77.1244 56.1566 76.4766Z" fill="white"/>
</g>
<defs>
<clipPath id="clip0_2129_4647">
<rect width="161" height="44" fill="white" transform="translate(40 38)"/>
</clipPath>
</defs>
</svg>
