<svg width="240" height="120" viewBox="0 0 240 120" fill="none" xmlns="http://www.w3.org/2000/svg">
<rect x="1" y="1" width="238" height="118" rx="23" stroke="#4EBDF5" stroke-width="2"/>
<g clip-path="url(#clip0_2129_4666)">
<path fill-rule="evenodd" clip-rule="evenodd" d="M129.719 70.7923C133.45 70.3552 135.926 67.2176 135.926 63.554C135.926 60.609 134.198 57.7122 131.525 56.612C131.331 54.1486 131.192 52.2076 130.242 50.1924C135.488 50.974 139.506 55.2933 139.506 60.5053C139.506 65.9804 135.357 70.4737 129.723 70.9146V70.796L129.719 70.7923Z" fill="white"/>
<path fill-rule="evenodd" clip-rule="evenodd" d="M127.321 50.2669C123.59 50.704 121.114 53.8416 121.114 57.5089C121.114 60.4539 122.846 63.347 125.516 64.4509C125.705 66.918 125.849 68.8591 126.802 70.8742C121.556 70.0889 117.542 65.7733 117.542 60.5613C117.542 55.0863 121.688 50.5966 127.325 50.1558V50.2706L127.321 50.2669Z" fill="white"/>
<path fill-rule="evenodd" clip-rule="evenodd" d="M128.282 70.9998H127.968C126.968 68.9809 126.821 66.8065 126.612 64.6209C126.662 64.2245 126.945 63.9504 127.232 63.6911L127.515 63.4392C127.891 63.0984 128.193 62.7576 128.193 62.2723C128.193 60.8647 125.361 60.2201 125.361 56.7714C125.361 54.2117 126.759 51.6297 128.774 49.9961H129.076C130.076 52.015 130.235 54.1894 130.444 56.3713C130.393 56.7677 130.111 57.0418 129.824 57.2974L129.541 57.5456C129.161 57.8864 128.863 58.2272 128.863 58.7162C128.863 60.1238 131.695 60.7684 131.695 64.2171C131.695 66.7805 130.297 69.3588 128.282 70.9961V70.9998ZM129.39 54.4487V57.0714L129.51 56.9714V55.8934L129.762 55.8897V56.7232C129.859 56.6158 129.94 56.4935 129.963 56.3676C129.781 54.4487 129.634 52.3484 128.82 50.5592C126.883 52.2298 125.829 54.6969 125.829 56.7788C125.829 58.5532 126.542 59.42 127.701 60.5831C128.17 61.0573 128.662 61.5759 128.662 62.276V69.4254H128.406V63.1317L128.286 63.3021V67.9882H128.03V63.5874L127.91 63.7022V66.5472H127.658V63.9282L127.538 64.0245V65.1062H127.282V64.2764C127.182 64.3838 127.1 64.5061 127.081 64.632C127.267 66.5509 127.406 68.6512 128.22 70.4404C130.153 68.7698 131.215 66.299 131.215 64.2208C131.215 62.4464 130.502 61.5796 129.347 60.4164C128.875 59.9423 128.386 59.42 128.386 58.7199V51.5704H128.642V57.8679L128.762 57.6975V53.0077H129.018V57.4122L129.138 57.2974V54.4487H129.39Z" fill="white"/>
<path fill-rule="evenodd" clip-rule="evenodd" d="M81.9084 53.9968V50.3369H66.2944V70.6627H81.9084V67.0287H72.6485V61.4648H80.9282V57.8901H72.6485V53.9968H81.9084Z" fill="white"/>
<path fill-rule="evenodd" clip-rule="evenodd" d="M176.496 50.3369L168.076 70.6627H172.61L174.4 66.0397H183.253L185.178 70.6627H190.01L181.602 50.3369H176.496ZM175.787 62.7206L178.828 54.9303H178.964L182.005 62.7206H175.787Z" fill="white"/>
<path fill-rule="evenodd" clip-rule="evenodd" d="M44.4308 70.6627H49.9093V61.4759H58.1696V70.6627H63.6249V50.3369H58.1696V57.8901H49.9093V50.3369H44.4308V70.6627Z" fill="white"/>
<path fill-rule="evenodd" clip-rule="evenodd" d="M40.7694 52.5077C40.0643 51.6705 39.0298 51.0445 37.8636 50.6814C36.6974 50.2888 35.3917 50.3406 34.117 50.3406H26V53.9191H32.2185C33.1135 53.9191 34.0085 53.9191 34.4696 54.1561C34.9306 54.4154 34.9578 54.9378 34.9578 55.4601V57.9309H27.3832V61.4945H34.9578V65.1507C34.9578 65.8026 34.6865 66.4546 34.1441 66.7695C33.6288 67.0584 32.7028 67.0065 31.8078 67.0065H26V70.6627H34.4153C35.5002 70.6627 36.5889 70.6109 37.6466 70.3219C38.7315 70.0626 39.735 69.6181 40.5253 68.8069C41.2847 67.9993 41.8814 66.7954 41.8814 65.5952V55.4082C41.8814 54.3636 41.4746 53.3449 40.7694 52.5077Z" fill="white"/>
<path fill-rule="evenodd" clip-rule="evenodd" d="M118.348 54.0227V50.3369H102.49V70.6627H108.708V54.0227H118.348Z" fill="white"/>
<path fill-rule="evenodd" clip-rule="evenodd" d="M209.893 50.3369V67.2066H205.74V50.3369H200.634V67.2066H196.778V50.3369H191.54V70.6627H215V50.3369H209.893Z" fill="white"/>
<path fill-rule="evenodd" clip-rule="evenodd" d="M90.0834 63.9097H92.6638C93.83 63.9097 95.0272 63.8837 96.0849 63.5467C97.1426 63.1836 98.0415 62.6391 98.6924 61.9908C99.3433 61.3166 99.7502 60.5387 99.9942 59.6015C100.238 58.668 100.347 57.6049 100.293 56.6417C100.265 55.7082 100.103 54.9044 99.6959 54.045C99.262 53.1893 98.6382 52.3076 97.7974 51.7112C96.9838 51.0889 95.9493 50.7777 94.9187 50.5703C93.861 50.3628 92.7994 50.3369 91.7416 50.3369H84.5429V70.6627H90.0834V63.9097ZM93.1248 53.2411C93.7215 53.4486 94.2639 53.8116 94.5932 54.2784C94.8916 54.7451 94.9729 55.3415 95.0543 56.0157C95.1086 56.6899 95.1357 57.4715 95.0543 58.1976C95.0001 58.8977 94.8102 59.5497 94.4848 60.0386C94.1593 60.5572 93.6711 60.9203 93.0977 61.1573C92.1756 61.5204 91.0907 61.3907 90.0834 61.4166V52.9559C91.0055 52.9818 92.1213 52.8781 93.1248 53.2411Z" fill="white"/>
<path fill-rule="evenodd" clip-rule="evenodd" d="M147.995 50.3369L153.826 62.8539L159.653 50.3369H166.542V70.6627H161.075V59.2978L155.779 70.6627H151.866L146.577 59.2978V70.6627H141.106V50.3369H147.995Z" fill="white"/>
</g>
<defs>
<clipPath id="clip0_2129_4666">
<rect width="189" height="21" fill="white" transform="translate(26 50)"/>
</clipPath>
</defs>
</svg>
