<svg width="240" height="120" viewBox="0 0 240 120" fill="none" xmlns="http://www.w3.org/2000/svg">
<rect x="1" y="1" width="238" height="118" rx="23" stroke="#4EBDF5" stroke-width="2"/>
<g clip-path="url(#clip0_2129_4634)">
<path d="M151.591 65.1915C151.202 65.1915 150.888 64.895 150.888 64.528C150.888 64.5187 150.888 64.5094 150.888 64.502V53.2233L150.892 53.177C150.928 52.8415 151.226 52.582 151.589 52.582C151.952 52.582 152.25 52.8434 152.286 53.177L152.29 53.2233C152.29 53.2233 152.29 53.2641 152.29 53.2734V64.5039C152.29 64.5039 152.29 64.5206 152.29 64.5298C152.29 64.8968 151.974 65.1934 151.591 65.1934V65.1915ZM152.902 50.5098H150.277C148.057 50.5098 147.926 52.3299 147.926 53.5032V64.2685C147.926 65.4418 148.057 67.2638 150.277 67.2638H152.902C155.12 67.2638 155.256 65.4418 155.256 64.2685V53.5032C155.256 52.3281 155.118 50.5098 152.902 50.5098Z" fill="white"/>
<path d="M103.504 50.5098H109.549V52.5913H106.671V67.2638H103.504V50.5098Z" fill="white"/>
<path d="M110.017 67.2638H113.116L113.412 62.8098H114.909L115.203 67.2638H118.302L116.649 50.5098H111.671L110.017 67.2638ZM113.523 60.9692L114.071 52.5876H114.248L114.792 60.9692H113.523Z" fill="white"/>
<path d="M122.839 61.3974V64.5502C122.839 64.9821 123.154 65.1044 123.335 65.1044C123.631 65.1044 123.833 64.8394 123.833 64.5502V60.656C123.833 60.1277 123.742 59.555 122.565 59.555H121.276V57.7126H122.609C123.514 57.7126 123.835 57.4938 123.835 56.4688V53.1381C123.835 52.8489 123.631 52.5894 123.337 52.5894C123.156 52.5894 122.84 52.708 122.84 53.1381V55.8702H119.67V53.5032C119.67 52.3281 119.806 50.5098 122.023 50.5098H124.653C126.871 50.5098 127.006 52.3299 127.006 53.5032V56.1834C127.006 58.0017 125.807 58.5022 124.856 58.454V58.6226C126.982 58.5707 127.006 60.2964 127.006 60.8969V64.2666C127.006 65.4399 126.873 67.2619 124.653 67.2619H122.023C119.806 67.2619 119.67 65.4399 119.67 64.2666V61.3937H122.84L122.839 61.3974Z" fill="white"/>
<path d="M129.089 50.5098H136.423V67.2638H133.466V52.5913H132.044V67.2638H129.089V50.5098Z" fill="white"/>
<path d="M138.72 67.2638H141.889V61.566H143.698C145.916 61.566 146.27 59.7459 146.27 58.5726V53.5032C146.27 52.3281 145.918 50.5098 143.698 50.5098H138.718V67.2638H138.72ZM141.889 59.7218V52.5894H142.719C143.063 52.5894 143.309 52.899 143.309 53.4235V58.8877C143.309 59.4122 143.061 59.7218 142.719 59.7218H141.889Z" fill="white"/>
<path d="M165.367 50.5098H169.489V67.2638H166.319V56.758H166.205L164.575 67.2638H162.042L160.411 56.758H160.296V67.2638H157.129V50.5098H161.246L163.303 62.2833L165.367 50.5098Z" fill="white"/>
<path d="M96.744 52.2135C96.7057 53.9113 96.5049 55.7055 96.253 56.775C96.3443 54.9289 96.1271 52.3247 95.7054 50.2913C95.2892 48.2562 94.1045 44.8642 93.1607 43.2906C92.2882 44.7882 91.2112 47.7242 90.6489 50.2728C90.083 52.8251 90.0666 55.9094 90.0666 56.8361C89.9169 56.0521 89.5427 53.2737 89.6486 50.4786C89.7362 48.1709 90.2692 45.804 90.5595 44.7122C91.6675 41.0719 92.9252 38.7476 93.1607 38.3787C93.3962 38.7476 94.9789 41.6094 95.8003 44.6214C96.6163 47.6352 96.7806 50.5138 96.7459 52.2153L96.744 52.2135ZM93.1772 65.2141C92.6861 64.2725 91.9213 62.4801 91.8482 59.7147C91.83 57.0382 92.8851 54.7417 93.1936 54.2635C93.4692 54.7398 94.3783 56.7398 94.4878 59.4737C94.559 62.1483 93.6883 64.2539 93.1772 65.2141ZM97.0343 44.6585C96.0358 40.2063 93.524 36.5882 93.1772 35.9951C92.6314 36.8273 90.627 40.021 89.6121 43.5686C88.5022 47.5222 88.3398 51.0309 88.7213 54.4859C89.101 57.939 90.5412 61.4848 90.5412 61.4848C91.3061 63.3476 92.4506 65.3401 93.1936 66.3206C94.287 64.8804 96.7988 60.5821 97.5801 54.9659C98.0164 51.8446 98.0346 49.1088 97.0343 44.6585Z" fill="white"/>
<path d="M87.0346 67.2622V72.5299C87.0346 72.5299 87.0473 72.5132 87.0546 72.504C88.8673 70.6727 91.8099 70.6727 93.6226 72.504C95.437 74.339 95.437 77.3176 93.6226 79.1489C93.6134 79.1563 93.6061 79.1637 93.5988 79.1711C93.5988 79.1711 93.5806 79.1878 93.5733 79.197C91.7643 81.0116 89.4022 81.9236 87.0364 81.9236C84.6706 81.9236 82.2866 81.0042 80.474 79.1748C77.2849 75.946 76.9052 70.9489 79.3367 67.303C79.6671 66.8081 80.0432 66.341 80.474 65.9036C82.2884 64.0723 84.6615 63.1585 87.0364 63.1585V50.5972C77.9111 50.5972 70.5144 58.0798 70.5144 67.3011C70.5144 76.5224 77.9129 84.0069 87.0364 84.0069C91.7953 84.0069 96.0796 81.9718 99.0934 78.7188V67.2585H87.0364L87.0346 67.2622Z" fill="white"/>
<path d="M166.53 80.0549C166.53 81.649 165.815 81.9307 163.997 81.9307H162.323V74.6575H163.997V77.4637H164.274C165.919 77.4637 166.53 77.8511 166.53 79.308V80.0568V80.0549ZM152.569 76.0309H151.301V81.9363H149.711V76.0309H148.353V74.6519H152.569V76.0309ZM139.702 79.3358C139.702 80.813 138.957 81.2097 137.312 81.2097V81.9288H135.686V81.2097C134.034 81.2097 133.287 80.813 133.287 79.3358V77.0633C133.287 75.5787 134.005 75.2024 135.686 75.2024V74.6556H137.312V75.2024C138.984 75.2024 139.702 75.5787 139.702 77.0633V79.3358ZM124.538 76.0309H122.249V77.4619H124.297V78.8427H122.249V80.5554H124.538V81.9363H120.522V74.6519H124.538V76.0309ZM110.667 81.9307H108.994V78.7482H108.133V81.9307H106.459V74.6575H108.133V77.4637H108.994V74.6575H110.667V81.9307ZM169.487 72.8447H103.502V84.0122H169.487V72.8447ZM137.57 76.4813H137.312V79.8696H137.57C137.942 79.8696 138.077 79.7639 138.077 79.3358V76.9966C138.077 76.5685 137.942 76.4813 137.57 76.4813ZM164.367 78.7463H163.997V80.6481H164.367C164.743 80.6481 164.856 80.5498 164.856 80.1346V79.2598C164.856 78.8427 164.743 78.7482 164.367 78.7482V78.7463ZM134.914 77.0152V79.3469C134.914 79.7713 135.047 79.8696 135.419 79.8696H135.688V76.4813H135.419C135.047 76.4813 134.914 76.5888 134.914 77.0152Z" fill="white"/>
</g>
<defs>
<clipPath id="clip0_2129_4634">
<rect width="130" height="78" fill="white" transform="translate(55 21)"/>
</clipPath>
</defs>
</svg>
