<svg width="40" height="40" viewBox="0 0 40 40" fill="none" xmlns="http://www.w3.org/2000/svg">
<rect width="40" height="40" rx="20" fill="#4EBDF5"/>
<path d="M26.8013 14.9225C25.5938 14.8025 24.3863 14.7125 23.1713 14.645V14.6375L23.0063 13.6625C22.8938 12.9725 22.7288 11.9375 20.9738 11.9375H19.0088C17.2613 11.9375 17.0963 12.9275 16.9763 13.655L16.8188 14.615C16.1213 14.66 15.4238 14.705 14.7263 14.7725L13.1963 14.9225C12.8813 14.9525 12.6563 15.23 12.6863 15.5375C12.7163 15.845 12.9863 16.07 13.3013 16.04L14.8313 15.89C18.7613 15.5 22.7213 15.65 26.6963 16.0475C26.7188 16.0475 26.7338 16.0475 26.7563 16.0475C27.0413 16.0475 27.2888 15.83 27.3188 15.5375C27.3413 15.23 27.1163 14.9525 26.8013 14.9225Z" fill="white"/>
<path d="M25.4218 17.105C25.2418 16.9175 24.9943 16.8125 24.7393 16.8125H15.2593C15.0043 16.8125 14.7493 16.9175 14.5768 17.105C14.4043 17.2925 14.3068 17.5475 14.3218 17.81L14.7868 25.505C14.8693 26.645 14.9743 28.07 17.5918 28.07H22.4068C25.0243 28.07 25.1293 26.6525 25.2118 25.505L25.6768 17.8175C25.6918 17.5475 25.5943 17.2925 25.4218 17.105ZM21.2443 24.3125H18.7468C18.4393 24.3125 18.1843 24.0575 18.1843 23.75C18.1843 23.4425 18.4393 23.1875 18.7468 23.1875H21.2443C21.5518 23.1875 21.8068 23.4425 21.8068 23.75C21.8068 24.0575 21.5518 24.3125 21.2443 24.3125ZM21.8743 21.3125H18.1243C17.8168 21.3125 17.5618 21.0575 17.5618 20.75C17.5618 20.4425 17.8168 20.1875 18.1243 20.1875H21.8743C22.1818 20.1875 22.4368 20.4425 22.4368 20.75C22.4368 21.0575 22.1818 21.3125 21.8743 21.3125Z" fill="white"/>
</svg>
