<svg width="24" height="24" viewBox="0 0 24 24" fill="none" xmlns="http://www.w3.org/2000/svg">
<path fill-rule="evenodd" clip-rule="evenodd" d="M22.4685 3.58568C22.792 3.32692 22.8444 2.85495 22.5857 2.53151C22.3269 2.20806 21.855 2.15562 21.5315 2.41438L18.2062 5.07464C18.0246 4.91151 17.8385 4.75148 17.6483 4.59574C16.0768 3.30902 14.141 2.25003 12 2.25003C9.85908 2.25003 7.92328 3.30902 6.35176 4.59574C4.77166 5.88949 3.47965 7.47868 2.61144 8.68804L2.53984 8.78762C2.01718 9.51386 1.58694 10.1117 1.58694 11C1.58694 11.8884 2.01718 12.4862 2.53984 13.2124L2.61144 13.312C3.1561 14.0707 3.86754 14.9788 4.71227 15.8698L1.53151 18.4144C1.20806 18.6731 1.15562 19.1451 1.41438 19.4685C1.67313 19.792 2.1451 19.8444 2.46855 19.5857L22.4685 3.58568ZM8.66178 12.7102L9.87453 11.74C9.79386 11.5082 9.75003 11.2592 9.75003 11C9.75003 9.75739 10.7574 8.75003 12 8.75003C12.4362 8.75003 12.8434 8.87415 13.1882 9.089L14.4007 8.11904C13.7503 7.57647 12.9133 7.25003 12 7.25003C9.92896 7.25003 8.25003 8.92896 8.25003 11C8.25003 11.6161 8.39857 12.1974 8.66178 12.7102Z" fill="#4EBDF5"/>
<path d="M20.6952 7.76484L15.6673 11.7872C15.3056 13.4803 13.8011 14.75 12 14.75L11.9639 14.7499L7.54805 18.2825C8.86737 19.1396 10.3746 19.75 12 19.75C14.141 19.75 16.0768 18.691 17.6483 17.4043C19.2284 16.1106 20.5204 14.5214 21.3886 13.312L21.4602 13.2124C21.9829 12.4862 22.4131 11.8884 22.4131 11C22.4131 10.1117 21.9829 9.51386 21.4602 8.78762L21.3886 8.68804C21.1811 8.39894 20.9493 8.08813 20.6952 7.76484Z" fill="#4EBDF5"/>
</svg>
