<svg width="33" height="32" viewBox="0 0 33 32" fill="none" xmlns="http://www.w3.org/2000/svg">
<path d="M16.5 2.66699C9.14002 2.66699 3.16669 8.64033 3.16669 16.0003C3.16669 23.3603 9.14002 29.3337 16.5 29.3337C23.86 29.3337 29.8334 23.3603 29.8334 16.0003C29.8334 8.64033 23.86 2.66699 16.5 2.66699ZM22.6867 11.7337C22.4867 13.8403 21.62 18.9603 21.18 21.3203C20.9934 22.3203 20.62 22.6537 20.2734 22.6937C19.5 22.7603 18.9134 22.187 18.1667 21.6937C16.9934 20.9203 16.3267 20.4403 15.1934 19.6937C13.8734 18.827 14.7267 18.347 15.4867 17.5737C15.6867 17.3737 19.1 14.267 19.1667 13.987C19.1759 13.9446 19.1747 13.9006 19.1631 13.8587C19.1515 13.8169 19.1298 13.7785 19.1 13.747C19.02 13.6803 18.9134 13.707 18.82 13.7203C18.7 13.747 16.8334 14.987 13.1934 17.4403C12.66 17.8003 12.18 17.987 11.7534 17.9737C11.2734 17.9603 10.3667 17.707 9.68669 17.4803C8.84669 17.2137 8.19335 17.067 8.24669 16.6003C8.27335 16.3603 8.60669 16.1203 9.23335 15.867C13.1267 14.1737 15.7134 13.0537 17.0067 12.5203C20.7134 10.9737 21.4734 10.707 21.98 10.707C22.0867 10.707 22.34 10.7337 22.5 10.867C22.6334 10.9737 22.6734 11.1203 22.6867 11.227C22.6734 11.307 22.7 11.547 22.6867 11.7337Z" fill="white"/>
</svg>
