<svg width="33" height="32" viewBox="0 0 33 32" fill="none" xmlns="http://www.w3.org/2000/svg">
<path fill-rule="evenodd" clip-rule="evenodd" d="M9.83333 4C8.41885 4 7.06229 4.5619 6.0621 5.5621C5.0619 6.56229 4.5 7.91885 4.5 9.33333V22.6667C4.5 24.0812 5.0619 25.4377 6.0621 26.4379C7.06229 27.4381 8.41885 28 9.83333 28H23.1667C24.5812 28 25.9377 27.4381 26.9379 26.4379C27.9381 25.4377 28.5 24.0812 28.5 22.6667V9.33333C28.5 7.91885 27.9381 6.56229 26.9379 5.5621C25.9377 4.5619 24.5812 4 23.1667 4H9.83333ZM23.6093 13.4067C23.8056 13.1125 23.8769 12.7523 23.8077 12.4055C23.7384 12.0587 23.5342 11.7536 23.24 11.5573C22.9458 11.3611 22.5857 11.2897 22.2388 11.359C21.892 11.4283 21.5869 11.6325 21.3907 11.9267C20.9187 12.5533 20.424 13.1533 19.8453 13.6867C19.1747 14.3053 18.496 14.7693 17.8347 15.044L17.824 12.5107C17.7858 12.1863 17.6299 11.8873 17.3858 11.6703C17.1418 11.4533 16.8266 11.3334 16.5 11.3333C15.7773 11.3747 15.1667 11.908 15.1667 12.6667V18.4973C12.5693 17.7773 11.1667 15.2573 11.1667 12.6667C11.1667 12.313 11.0262 11.9739 10.7761 11.7239C10.5261 11.4738 10.187 11.3333 9.83333 11.3333C9.47971 11.3333 9.14057 11.4738 8.89052 11.7239C8.64048 11.9739 8.5 12.313 8.5 12.6667C8.5 17.5093 11.8467 21.3333 16.5 21.3333C16.8536 21.3333 17.1928 21.1929 17.4428 20.9428C17.6929 20.6928 17.8333 20.3536 17.8333 20V17.916C19.6093 18.0573 21.332 19.312 21.9747 20.596C22.0496 20.7581 22.1562 20.9035 22.2884 21.0236C22.4205 21.1437 22.5755 21.236 22.744 21.2951C22.9125 21.3542 23.0911 21.3788 23.2693 21.3675C23.4475 21.3562 23.6217 21.3093 23.7814 21.2294C23.9411 21.1496 24.0831 21.0384 24.1991 20.9026C24.315 20.7669 24.4025 20.6091 24.4564 20.4389C24.5102 20.2686 24.5293 20.0893 24.5125 19.9115C24.4957 19.7338 24.4434 19.5612 24.3587 19.404C23.7213 18.128 22.532 16.9347 21.068 16.156C21.2653 15.9942 21.4609 15.8244 21.6547 15.6467C22.3893 14.9768 23.0451 14.2253 23.6093 13.4067Z" fill="white"/>
</svg>
