<svg width="24" height="24" viewBox="0 0 24 24" fill="none" xmlns="http://www.w3.org/2000/svg">
<path d="M21.298 8H15.702C15.3109 8 15 7.55714 15 7C15 6.44286 15.3109 6 15.702 6H21.298C21.6891 6 22 6.44286 22 7C22 7.55714 21.6891 8 21.298 8Z" fill="white"/>
<path d="M6.31641 8H2.68359C2.30273 8 2 7.55714 2 7C2 6.44286 2.30273 6 2.68359 6H6.31641C6.69727 6 7 6.44286 7 7C7 7.55714 6.6875 8 6.31641 8Z" fill="white"/>
<path d="M10.1399 10.8297C12.3215 10.8297 14.0899 9.06121 14.0899 6.87969C14.0899 4.69816 12.3215 2.92969 10.1399 2.92969C7.95842 2.92969 6.18994 4.69816 6.18994 6.87969C6.18994 9.06121 7.95842 10.8297 10.1399 10.8297Z" fill="white"/>
<path d="M21.3164 18H17.6836C17.3027 18 17 17.5571 17 17C17 16.4429 17.3027 16 17.6836 16H21.3164C21.6973 16 22 16.4429 22 17C22 17.5571 21.6973 18 21.3164 18Z" fill="white"/>
<path d="M8.29799 18H2.70201C2.31089 18 2 17.5571 2 17C2 16.4429 2.31089 16 2.70201 16H8.29799C8.68911 16 9 16.4429 9 17C9 17.5571 8.67908 18 8.29799 18Z" fill="white"/>
<path d="M13.8602 21.0719C16.0417 21.0719 17.8102 19.3034 17.8102 17.1219C17.8102 14.9404 16.0417 13.1719 13.8602 13.1719C11.6786 13.1719 9.91016 14.9404 9.91016 17.1219C9.91016 19.3034 11.6786 21.0719 13.8602 21.0719Z" fill="white"/>
</svg>
