<svg width="56" height="56" viewBox="0 0 56 56" fill="none" xmlns="http://www.w3.org/2000/svg">
<rect x="4.66602" y="4.66797" width="46.6667" height="46.6667" rx="14" fill="#9BE931"/>
<path d="M42.6856 25.6693H27.3131C26.4127 25.6693 25.666 25.1404 25.666 24.5026C25.666 23.8648 26.4127 23.3359 27.3131 23.3359H42.6856C43.586 23.3359 44.3327 23.8648 44.3327 24.5026C44.3327 25.1404 43.586 25.6693 42.6856 25.6693Z" fill="white"/>
<path d="M38.8418 30.3333H31.1556C30.7054 30.3333 30.332 29.8044 30.332 29.1667C30.332 28.5289 30.7054 28 31.1556 28H38.8418C39.292 28 39.6654 28.5289 39.6654 29.1667C39.6654 29.8044 39.292 30.3333 38.8418 30.3333Z" fill="white"/>
<path d="M19.8543 21H15.1277C12.7977 21 11.666 22.1317 11.666 24.4617V29.2049C11.666 31.535 12.7977 32.6667 15.1277 32.6667H19.871C22.201 32.6667 23.3327 31.535 23.3327 29.2049V24.4617C23.316 22.1317 22.1843 21 19.8543 21Z" fill="white"/>
</svg>
