<svg width="56" height="56" viewBox="0 0 56 56" fill="none" xmlns="http://www.w3.org/2000/svg">
<path d="M6.01987 44.3583L5.9732 44.4049C5.3432 43.0283 4.94654 41.4649 4.7832 39.7383C4.94654 41.4416 5.38987 42.9816 6.01987 44.3583Z" fill="white"/>
<path d="M21.0006 24.2199C24.0676 24.2199 26.5539 21.7336 26.5539 18.6666C26.5539 15.5996 24.0676 13.1133 21.0006 13.1133C17.9336 13.1133 15.4473 15.5996 15.4473 18.6666C15.4473 21.7336 17.9336 24.2199 21.0006 24.2199Z" fill="white"/>
<path d="M37.776 4.66797H18.2227C9.72935 4.66797 4.66602 9.7313 4.66602 18.2246V37.778C4.66602 40.3213 5.10935 42.538 5.97268 44.4046C7.97935 48.838 12.2727 51.3346 18.2227 51.3346H37.776C46.2693 51.3346 51.3327 46.2713 51.3327 37.778V32.4346V18.2246C51.3327 9.7313 46.2693 4.66797 37.776 4.66797ZM47.5294 29.168C45.7094 27.6046 42.7693 27.6046 40.9493 29.168L31.2427 37.498C29.4227 39.0613 26.4827 39.0613 24.6627 37.498L23.8693 36.8446C22.2127 35.398 19.576 35.258 17.7093 36.518L8.98268 42.3746C8.46935 41.068 8.16602 39.5513 8.16602 37.778V18.2246C8.16602 11.6446 11.6427 8.16797 18.2227 8.16797H37.776C44.356 8.16797 47.8327 11.6446 47.8327 18.2246V29.4246L47.5294 29.168Z" fill="white"/>
</svg>
