<svg width="66" height="20" viewBox="0 0 66 20" fill="none" xmlns="http://www.w3.org/2000/svg">
<g clip-path="url(#clip0_4003_3917)">
<path fill-rule="evenodd" clip-rule="evenodd" d="M18.9237 18.9257L24.722 1.1416H29.8939L24.0956 18.9257H18.9237Z" fill="white"/>
<path fill-rule="evenodd" clip-rule="evenodd" d="M16.6118 1.14551L11.9583 8.68449C10.7725 10.6586 10.0827 11.6578 9.74708 12.9033H9.67623C9.75827 11.3212 9.51962 9.37837 9.50098 8.28204L8.9864 1.14551H0.275893L0.186401 1.62428C2.42369 1.62428 3.75115 2.66857 4.11657 4.80918L5.81318 18.9296H11.1715L22.0074 1.14898H16.6081L16.6118 1.14551Z" fill="white"/>
<path fill-rule="evenodd" clip-rule="evenodd" d="M56.842 18.9257L56.7003 16.282H50.242L48.922 18.9257H43.3064L53.4898 1.17285H60.3844L62.1071 18.9257H56.8457H56.842ZM56.2491 8.43428C56.1932 7.11938 56.1447 5.33612 56.2379 4.25714H56.1633C55.8501 5.14183 54.4966 7.79244 53.9 9.09693L51.9759 12.9965H56.5101L56.2454 8.43775L56.2491 8.43428Z" fill="white"/>
<path fill-rule="evenodd" clip-rule="evenodd" d="M35.3268 19.4322C31.6763 19.4322 29.2526 18.3532 27.5187 17.3922L29.9834 13.8916C31.5383 14.7 32.7577 15.6332 35.5617 15.6332C36.4641 15.6332 37.3329 15.4147 37.8288 14.6202C38.5485 13.4649 37.661 12.8404 35.6438 11.7753L34.6444 11.1716C31.6502 9.26691 30.3526 7.45936 31.7621 4.29875C32.6644 2.27956 35.0434 0.746094 38.9699 0.746094C41.677 0.746094 44.2163 1.83548 45.6966 2.90058L42.8627 5.99181C41.4197 4.90589 40.2227 4.35773 38.8543 4.35773C37.7617 4.35773 36.9339 4.74977 36.6468 5.27711C36.1061 6.26936 36.8221 6.94589 38.3956 7.85834L39.5814 8.55916C43.217 10.6928 44.0858 12.9306 43.1722 15.0226C41.6024 18.6238 38.5336 19.4287 35.3231 19.4287L35.3268 19.4322Z" fill="white"/>
<path fill-rule="evenodd" clip-rule="evenodd" d="M63.5204 3.89316H63.181V1.96418H63.9678C64.4675 1.96418 64.7248 2.12724 64.7248 2.51928C64.7248 2.86969 64.4936 3.01194 64.1841 3.04663L64.7658 3.89316H64.3817L63.8448 3.06745H63.5241V3.89316H63.5204ZM63.9007 2.79683C64.1543 2.79683 64.3817 2.77255 64.3817 2.495C64.3817 2.26255 64.1356 2.23479 63.9305 2.23479H63.5204V2.79683H63.9007ZM63.8895 4.63561C62.8119 4.63561 62.0475 3.88622 62.0475 2.89398C62.0475 1.84622 62.8977 1.15234 63.8895 1.15234C64.8814 1.15234 65.7204 1.84622 65.7204 2.89398C65.7204 3.94173 64.8702 4.63561 63.8895 4.63561ZM63.8895 1.45418C63.0804 1.45418 62.4465 2.04398 62.4465 2.89398C62.4465 3.685 62.9983 4.33377 63.8895 4.33377C64.6912 4.33377 65.3214 3.74745 65.3214 2.89398C65.3214 2.04051 64.6912 1.45418 63.8895 1.45418Z" fill="white"/>
</g>
<defs>
<clipPath id="clip0_4003_3917">
<rect width="66" height="19" fill="white" transform="translate(0 0.5)"/>
</clipPath>
</defs>
</svg>
