<svg width="81" height="22" viewBox="0 0 81 22" fill="none" xmlns="http://www.w3.org/2000/svg">
<g clip-path="url(#clip0_4003_7755)">
<path d="M0.601013 0.345723H8.13887C8.82413 0.345723 10.8799 0.125723 11.7936 3.20572C12.4789 5.18572 13.3925 8.26572 14.7631 12.8857H15.2199C16.5904 8.04572 17.7325 4.74572 18.1894 3.20572C19.103 0.125723 21.3872 0.345723 22.3009 0.345723H29.3819V21.4657H22.0725V8.92572H21.6157L17.7325 21.4657H12.2504L8.36729 8.92572H7.68203V21.4657H0.601013M32.3514 0.345723H39.6608V12.8857H40.3461L45.1429 2.54572C46.0566 0.565723 48.1124 0.345723 48.1124 0.345723H54.965V21.4657H47.6555V8.92572H47.1987L42.4019 19.2657C41.4882 21.2457 39.204 21.4657 39.204 21.4657H32.3514M64.787 15.0857V21.4657H57.9344V10.4657H80.3196C79.4059 13.1057 76.208 15.0857 72.5533 15.0857" fill="#0F754E"/>
<path d="M80.7764 9.1457C81.6901 5.1857 78.9491 0.345703 73.0102 0.345703H57.4776C57.9344 4.9657 62.046 9.1457 66.386 9.1457" fill="url(#paint0_linear_4003_7755)"/>
</g>
<defs>
<linearGradient id="paint0_linear_4003_7755" x1="78.0354" y1="-2.5143" x2="59.7618" y2="-2.5143" gradientUnits="userSpaceOnUse">
<stop stop-color="#1F5CD7"/>
<stop offset="1" stop-color="#02AEFF"/>
</linearGradient>
<clipPath id="clip0_4003_7755">
<rect width="81" height="22" fill="white"/>
</clipPath>
</defs>
</svg>
